<?xml version="1.0" standalone="no"?>
<!DOCTYPE svg PUBLIC "-//W3C//DTD SVG 20010904//EN"
 "http://www.w3.org/TR/2001/REC-SVG-20010904/DTD/svg10.dtd">
<svg version="1.0" xmlns="http://www.w3.org/2000/svg"
 width="1000.000000pt" height="1000.000000pt" viewBox="0 0 1000.000000 1000.000000"
 preserveAspectRatio="xMidYMid meet">

<g transform="translate(0.000000,1000.000000) scale(0.100000,-0.100000)"
fill="#000000" stroke="none">
<path d="M3705 8920 c-3 -5 1 -10 9 -10 9 0 16 5 16 10 0 6 -4 10 -9 10 -6 0
-13 -4 -16 -10z"/>
<path d="M3536 8895 c-19 -15 -19 -15 2 -15 13 0 22 6 22 15 0 18 0 18 -24 0z"/>
<path d="M3461 8826 c-9 -11 -8 -15 5 -20 22 -8 33 2 15 14 -11 6 -8 9 10 13
21 4 22 4 3 6 -12 0 -27 -5 -33 -13z"/>
<path d="M3335 8800 c-7 -12 2 -12 30 0 19 8 19 9 -2 9 -12 1 -25 -3 -28 -9z"/>
<path d="M3270 8780 c0 -5 6 -10 14 -10 8 0 18 5 21 10 3 6 -3 10 -14 10 -12
0 -21 -4 -21 -10z"/>
<path d="M3202 8754 c-21 -14 -39 -21 -67 -23 -5 -1 -4 -5 4 -10 10 -6 25 -4
42 5 16 8 34 14 42 14 8 0 20 7 27 15 10 12 9 15 -7 15 -10 0 -29 -7 -41 -16z"/>
<path d="M2788 8525 c-26 -7 -61 -25 -79 -39 -32 -27 -27 -37 7 -11 32 24 37
17 15 -21 -12 -19 -21 -39 -21 -44 0 -11 33 6 77 39 34 25 35 41 2 41 -33 0
-21 19 21 30 22 6 40 13 40 15 0 7 -7 5 -62 -10z"/>
<path d="M2626 8411 c-4 -5 0 -12 6 -14 8 -4 7 -6 -4 -6 -9 -1 -18 -5 -20 -10
-1 -4 -14 -12 -28 -16 -23 -7 -24 -6 -10 10 13 16 12 17 -5 14 -12 -3 -21 -14
-23 -27 -2 -14 -9 -22 -17 -19 -7 3 -12 -1 -11 -11 1 -12 -9 -18 -33 -20 -22
-2 -45 -15 -65 -34 -22 -23 -25 -28 -9 -20 12 7 29 19 38 28 9 9 19 13 23 9 4
-3 -1 -11 -11 -16 -24 -14 -10 -32 20 -24 17 4 23 2 17 -6 -8 -14 5 -6 64 36
27 20 42 38 42 53 0 15 6 22 19 22 16 0 30 24 31 53 0 10 -18 9 -24 -2z"/>
<path d="M2328 8208 c-7 -13 -11 -29 -10 -35 3 -16 -3 -16 -29 -3 -16 9 -21 7
-29 -16 -6 -15 -13 -24 -16 -21 -3 3 -14 -3 -24 -13 -9 -9 -23 -19 -30 -22 -7
-2 -12 -16 -12 -32 0 -19 -5 -26 -15 -22 -8 3 -26 -7 -41 -22 -15 -15 -39 -32
-54 -39 -34 -15 -42 -43 -24 -79 9 -15 13 -31 9 -34 -3 -3 -8 1 -10 8 -3 6
-11 12 -18 12 -7 0 -15 6 -18 13 -3 8 -11 5 -26 -10 -12 -13 -26 -23 -31 -23
-6 0 -10 -6 -10 -13 0 -22 -129 -167 -149 -167 -25 0 -21 -24 9 -51 34 -31 55
-30 47 3 -4 14 0 22 14 25 10 3 19 10 19 16 0 6 3 7 7 4 12 -12 33 15 28 37
-3 11 -1 28 5 36 9 13 11 13 20 0 8 -13 13 -11 34 10 14 14 27 36 29 50 3 18
13 28 36 36 40 13 80 46 63 52 -17 5 -15 22 3 22 8 0 15 9 15 19 0 14 5 18 20
14 22 -6 63 24 54 38 -3 5 4 9 16 9 14 0 24 9 31 30 6 16 15 27 20 24 13 -8
40 16 33 27 -3 5 0 8 8 7 8 -2 12 5 10 17 -2 14 0 16 6 7 14 -20 96 46 100 81
3 28 -6 35 -25 16 -8 -8 -13 -8 -17 0 -12 18 -34 12 -48 -11z"/>
<path d="M1770 7641 c0 -6 -7 -11 -15 -11 -8 0 -17 -11 -21 -25 -4 -14 -9 -24
-12 -21 -2 3 -13 -6 -24 -19 -10 -14 -24 -24 -30 -22 -7 1 -13 -6 -16 -15 -2
-13 7 -18 43 -23 40 -6 48 -4 65 15 11 12 17 27 14 31 -3 5 0 9 7 9 7 0 9 3 6
7 -4 3 -1 13 6 21 9 12 9 16 0 19 -7 2 -10 10 -7 18 3 7 1 16 -5 20 -6 3 -11
1 -11 -4z"/>
<path d="M1655 7488 c-4 -10 -11 -18 -15 -18 -13 0 -70 -57 -70 -69 0 -7 -16
-27 -35 -47 -45 -45 -68 -81 -61 -93 4 -6 14 -7 23 -4 11 4 14 3 9 -6 -4 -6
-13 -10 -19 -9 -22 5 -67 -34 -67 -57 0 -14 -7 -25 -19 -28 -13 -3 -20 -18
-25 -55 -3 -28 -12 -52 -20 -55 -16 -6 -48 -66 -41 -77 3 -4 -4 -10 -15 -13
-13 -3 -18 -11 -14 -20 3 -8 0 -18 -5 -22 -6 -3 -9 -11 -6 -16 10 -15 23 -10
30 12 6 17 9 19 16 8 5 -8 9 -9 9 -3 0 7 8 11 18 10 9 0 17 6 17 14 0 8 7 22
16 30 23 22 42 60 30 60 -6 0 -8 7 -5 15 4 8 12 15 20 15 8 0 14 7 14 15 0 8
7 15 15 15 8 0 15 5 15 11 0 6 9 23 19 37 21 29 21 31 21 66 0 25 39 76 58 76
14 0 72 71 72 87 0 7 -5 13 -11 13 -8 0 -8 5 1 15 7 8 20 15 30 15 12 0 18 8
18 25 0 23 -2 23 -13 9 -9 -14 -14 -14 -20 -4 -5 8 -1 18 10 26 9 7 15 19 12
26 -3 9 -7 8 -12 -4z m-63 -120 c-7 -7 -12 -8 -12 -2 0 14 12 26 19 19 2 -3
-1 -11 -7 -17z"/>
<path d="M1293 6881 c-12 -11 -24 -17 -27 -14 -3 4 -6 1 -6 -5 0 -7 -9 -12
-19 -12 -30 0 -35 -29 -6 -36 32 -8 31 -18 -3 -43 -20 -14 -32 -17 -39 -10 -7
7 -14 0 -22 -23 -9 -27 -9 -30 2 -16 12 15 14 15 25 -3 16 -25 15 -28 -8 -22
-12 3 -22 -1 -26 -11 -3 -9 -9 -14 -13 -11 -10 6 -43 -64 -36 -76 4 -5 1 -9
-6 -9 -7 0 -4 -7 7 -15 19 -14 18 -14 -2 -9 -17 5 -24 -1 -33 -27 -14 -42 -14
-42 8 -36 14 3 18 1 14 -9 -3 -8 1 -14 11 -14 9 0 16 3 17 8 4 38 34 92 51 92
6 0 8 7 4 15 -8 21 3 45 20 45 20 0 27 22 16 51 -13 33 -13 44 1 42 12 -2 67
79 67 98 0 5 4 9 9 9 5 0 11 14 13 30 3 17 4 30 3 30 -1 0 -11 -9 -22 -19z
m-93 -200 c0 -5 -7 -11 -14 -14 -10 -4 -13 -1 -9 9 6 15 23 19 23 5z"/>
<path d="M1081 6451 c-7 -5 -10 -14 -7 -20 4 -6 2 -11 -3 -11 -6 0 -11 8 -11
17 0 35 -22 -6 -55 -102 -36 -104 -37 -139 -3 -108 11 10 22 13 26 8 15 -21
32 -13 40 18 6 23 4 36 -5 45 -19 19 -16 43 5 40 10 -2 17 3 17 13 0 9 7 28
14 43 17 31 5 71 -18 57z m-47 -106 c-4 -8 -8 -15 -10 -15 -2 0 -4 7 -4 15 0
8 4 15 10 15 5 0 7 -7 4 -15z m10 -34 c3 -5 -1 -11 -9 -15 -9 -3 -15 0 -15 9
0 16 16 20 24 6z"/>
<path d="M4360 6375 c0 -5 5 -17 10 -25 5 -8 10 -10 10 -5 0 6 -5 17 -10 25
-5 8 -10 11 -10 5z"/>
<path d="M4381 6325 c0 -5 6 -21 14 -35 8 -14 14 -20 14 -15 0 6 -6 21 -14 35
-8 14 -14 21 -14 15z"/>
<path d="M4451 6175 c0 -5 6 -21 14 -35 8 -14 14 -20 14 -15 0 6 -6 21 -14 35
-8 14 -14 21 -14 15z"/>
<path d="M975 6090 c-3 -5 -1 -10 4 -10 6 0 11 5 11 10 0 6 -2 10 -4 10 -3 0
-8 -4 -11 -10z"/>
<path d="M933 6042 c-27 -23 -29 -29 -17 -40 16 -14 28 -6 51 35 19 33 1 35
-34 5z"/>
<path d="M2975 5980 c-9 -16 -13 -30 -11 -30 3 0 12 14 21 30 9 17 13 30 11
30 -3 0 -12 -13 -21 -30z"/>
<path d="M914 5939 c0 -11 4 -19 8 -19 4 0 8 -4 8 -10 0 -5 -6 -10 -14 -10 -8
0 -17 -4 -20 -9 -8 -13 27 -8 42 6 17 16 15 36 -6 49 -15 10 -18 8 -18 -7z"/>
<path d="M2211 5934 c-73 -19 -130 -60 -166 -118 -29 -47 -30 -55 -30 -155 1
-102 2 -109 37 -176 20 -39 56 -96 80 -127 231 -297 252 -332 252 -420 1 -69
-20 -103 -85 -136 -54 -28 -103 -25 -190 14 -33 15 -61 25 -63 23 -2 -2 -18
-32 -36 -67 -38 -72 -40 -68 50 -103 38 -15 86 -23 157 -27 98 -4 105 -3 159
24 59 30 111 82 141 143 14 27 18 59 18 137 0 95 -2 103 -37 175 -20 40 -91
144 -157 229 -174 224 -201 286 -162 374 15 35 29 50 55 61 44 19 109 18 161
0 22 -8 43 -15 47 -15 14 0 61 111 51 121 -16 16 -116 46 -173 52 -34 3 -76 0
-109 -9z"/>
<path d="M5650 5821 c-53 -53 -48 -114 12 -151 39 -24 69 -25 108 -5 36 19 50
43 50 87 -1 86 -109 130 -170 69z"/>
<path d="M3388 5833 c7 -3 16 -2 19 1 4 3 -2 6 -13 5 -11 0 -14 -3 -6 -6z"/>
<path d="M4153 5833 c9 -2 25 -2 35 0 9 3 1 5 -18 5 -19 0 -27 -2 -17 -5z"/>
<path d="M874 5724 c3 -9 6 -23 6 -31 0 -13 3 -13 15 -3 17 14 21 35 5 25 -6
-3 -7 1 -4 9 4 11 0 16 -11 16 -12 0 -15 -5 -11 -16z"/>
<path d="M837 5674 c-4 -4 -7 -22 -7 -41 0 -39 25 -46 28 -7 2 29 -10 58 -21
48z"/>
<path d="M4152 5501 c-30 -10 -67 -28 -82 -40 -38 -28 -44 -27 -94 14 -24 19
-48 35 -55 35 -8 0 -11 -115 -11 -435 l0 -436 66 5 c36 3 69 8 73 10 4 3 8
147 9 321 1 174 5 321 8 327 4 5 27 23 52 39 88 56 184 29 210 -59 8 -26 12
-136 12 -336 l0 -297 73 3 72 3 0 305 c0 349 -8 405 -71 478 -60 70 -169 96
-262 63z"/>
<path d="M5170 5501 c-30 -10 -71 -27 -90 -39 -19 -12 -40 -22 -46 -22 -6 0
-31 16 -55 35 -24 19 -50 35 -56 35 -10 0 -13 -94 -13 -435 l0 -435 28 0 c15
0 50 3 77 6 l50 6 0 316 c0 196 4 323 10 336 11 23 112 64 158 65 l27 1 0 75
c0 86 1 86 -90 56z"/>
<path d="M6405 5511 c-105 -27 -185 -123 -185 -223 0 -49 39 -135 83 -180 23
-24 77 -71 119 -105 89 -72 112 -117 87 -169 -30 -63 -114 -77 -200 -34 -21
11 -40 20 -42 20 -2 0 -16 -27 -32 -60 -34 -71 -30 -80 50 -105 40 -12 79 -16
139 -14 75 4 89 7 128 35 96 70 133 154 108 252 -18 74 -65 137 -159 213 -133
109 -157 158 -106 213 29 31 91 35 155 10 23 -9 42 -15 44 -13 2 2 15 30 29
61 19 42 22 59 14 66 -36 28 -175 48 -232 33z"/>
<path d="M7236 5504 c-53 -17 -132 -87 -161 -144 -56 -109 -75 -325 -40 -447
34 -117 99 -209 177 -249 73 -38 245 -28 303 18 l24 19 -20 47 c-11 26 -24 51
-28 55 -4 4 -27 -1 -52 -12 -79 -37 -153 -20 -207 44 -30 38 -62 119 -62 161
l0 24 190 0 c172 0 191 2 198 18 4 9 7 69 7 132 0 124 -13 177 -63 253 -52 78
-166 113 -266 81z m137 -144 c29 -23 51 -101 45 -165 l-3 -40 -122 -3 -123 -3
0 24 c0 69 57 178 104 197 36 15 72 11 99 -10z"/>
<path d="M2924 5497 c-3 -8 -4 -162 -2 -343 3 -312 4 -331 25 -376 28 -61 84
-113 139 -128 72 -21 172 -8 236 28 l55 32 49 -35 49 -35 3 422 c1 233 0 429
-3 437 -4 11 -19 12 -67 7 -34 -3 -63 -7 -64 -9 -2 -2 -4 -138 -4 -303 -1
-164 -4 -312 -7 -327 -8 -40 -64 -79 -121 -84 -54 -4 -86 9 -116 50 -20 27
-21 43 -26 350 l-5 322 -68 3 c-51 3 -68 0 -73 -11z"/>
<path d="M5653 5503 c-10 -4 -13 -98 -13 -429 l0 -424 75 0 74 0 1 414 c0 227
-3 421 -6 430 -5 14 -18 17 -63 15 -31 -1 -62 -4 -68 -6z"/>
<path d="M4916 4234 c-8 -20 -8 -172 1 -418 l6 -196 171 2 171 3 3 48 3 47
-125 0 -126 0 0 90 0 90 98 0 c136 0 142 3 142 56 l0 44 -120 0 -120 0 0 75 0
75 109 0 c60 0 116 3 125 6 11 4 16 19 16 50 l0 44 -174 0 c-149 0 -175 -2
-180 -16z"/>
<path d="M7474 4094 c-3 -37 -13 -79 -20 -93 -20 -37 -18 -71 4 -71 15 0 17
-14 17 -155 0 -170 -4 -160 65 -149 l35 6 -3 106 c-2 59 -1 126 3 149 5 36 10
42 33 45 24 3 27 7 27 43 0 36 -3 40 -27 43 -26 3 -27 7 -34 73 l-7 69 -42 0
-43 0 -8 -66z"/>
<path d="M6275 4017 c-73 -33 -135 -155 -120 -235 9 -53 50 -117 87 -140 74
-46 177 -36 245 23 32 28 36 36 27 52 -6 10 -23 22 -37 27 -22 8 -31 5 -53
-17 -54 -54 -164 -23 -164 48 l0 25 135 0 135 0 0 38 c0 48 -45 139 -82 166
-35 25 -131 32 -173 13z m130 -92 c46 -45 35 -55 -60 -55 -93 0 -104 9 -62 47
43 40 88 43 122 8z"/>
<path d="M6970 4023 c-8 -3 -23 -13 -33 -22 -17 -14 -19 -14 -28 2 -7 12 -22
17 -49 17 l-40 0 0 -194 0 -194 41 -4 c22 -2 42 -2 45 1 2 2 4 58 4 123 0 87
4 127 15 148 25 48 72 64 111 36 17 -13 20 -31 24 -162 l5 -147 45 -1 45 -1 3
150 c3 172 -7 207 -68 237 -34 17 -89 22 -120 11z"/>
<path d="M7960 4017 c-34 -17 -70 -74 -70 -112 0 -34 46 -87 87 -99 63 -19 96
-83 54 -106 -29 -15 -40 -13 -67 17 -21 23 -29 25 -52 17 -39 -14 -39 -41 -1
-80 81 -83 223 -35 236 80 7 59 -12 88 -80 122 -87 44 -110 75 -64 88 14 3 31
-1 47 -13 26 -18 26 -18 54 6 33 28 29 45 -16 73 -37 23 -91 26 -128 7z"/>
<path d="M5520 4015 c0 -12 194 -405 199 -405 7 0 202 391 201 403 0 4 -22 7
-49 7 l-48 0 -49 -105 c-27 -58 -51 -105 -54 -105 -3 0 -27 47 -54 105 l-49
105 -48 0 c-27 0 -49 -2 -49 -5z"/>
<path d="M8675 3009 c-4 -6 -5 -12 -2 -15 2 -3 7 2 10 11 7 17 1 20 -8 4z"/>
<path d="M8620 2923 c0 -5 5 -15 10 -23 7 -12 12 -12 22 -2 10 10 10 15 -2 22
-18 12 -30 13 -30 3z"/>
<path d="M8612 2879 c2 -7 10 -15 17 -17 8 -3 12 1 9 9 -2 7 -10 15 -17 17 -8
3 -12 -1 -9 -9z"/>
<path d="M8597 2854 c3 -10 0 -12 -10 -9 -10 5 -14 -1 -14 -19 0 -14 -8 -32
-17 -41 -9 -9 -16 -23 -16 -32 0 -9 -6 -13 -15 -9 -8 3 -15 1 -15 -4 0 -6 5
-10 11 -10 6 0 0 -13 -13 -29 -13 -15 -26 -26 -30 -24 -12 6 -10 -15 2 -22 5
-3 18 3 29 14 12 12 27 17 40 14 15 -4 21 -1 21 10 0 9 -4 19 -10 22 -15 9 -7
42 17 69 21 23 43 60 43 69 0 3 -7 7 -14 10 -10 4 -13 1 -9 -9z"/>
<path d="M3778 2752 c-3 -53 -4 -99 -2 -101 1 -1 7 0 13 4 13 8 15 181 2 189
-5 3 -11 -38 -13 -92z"/>
<path d="M5200 2762 c0 -90 8 -112 41 -112 38 0 49 27 49 116 0 47 -4 83 -9
80 -4 -3 -12 -42 -15 -86 -12 -129 -46 -120 -46 13 0 44 -4 77 -10 77 -6 0
-10 -36 -10 -88z"/>
<path d="M5384 2838 c-4 -6 -8 -51 -9 -100 0 -66 3 -88 12 -88 7 0 13 11 13
24 0 38 19 41 31 7 14 -39 34 -42 25 -3 -9 32 -8 45 0 93 5 32 2 39 -24 58
-35 24 -38 25 -48 9z m52 -42 c3 -8 0 -24 -6 -36 -16 -29 -35 -11 -26 24 7 28
23 34 32 12z"/>
<path d="M5656 2828 c-10 -39 -7 -178 4 -178 6 0 13 8 16 18 18 56 21 58 31
23 5 -19 14 -36 21 -39 15 -5 15 23 0 48 -9 15 -9 24 1 44 19 34 6 73 -29 91
-37 19 -37 19 -44 -7z m54 -47 c0 -32 -14 -49 -25 -31 -9 15 3 60 15 60 6 0
10 -13 10 -29z"/>
<path d="M5838 2842 c-21 -4 -28 -43 -25 -127 2 -55 4 -60 26 -63 33 -5 48 13
22 27 -27 15 -27 37 0 52 l21 11 -21 19 c-26 25 -27 49 -1 56 37 10 16 34 -22
25z"/>
<path d="M5998 2838 c-39 -13 -37 -52 3 -94 36 -37 33 -64 -7 -64 -16 0 -24
-5 -21 -12 5 -16 47 -11 66 7 18 17 8 55 -25 94 -27 33 -25 51 7 51 10 0 19 4
19 9 0 16 -14 19 -42 9z"/>
<path d="M6133 2834 c-10 -27 -9 -169 2 -174 6 -3 11 8 13 23 2 18 11 31 26
37 47 18 39 103 -12 121 -17 7 -24 5 -29 -7z m48 -35 c8 -16 8 -27 -2 -45 -7
-13 -16 -24 -21 -24 -10 0 -11 74 -1 83 9 10 11 9 24 -14z"/>
<path d="M6310 2825 c-18 -19 -23 -36 -24 -78 0 -64 14 -87 55 -87 22 0 32 6
39 26 22 56 7 134 -28 153 -15 8 -24 5 -42 -14z m56 -56 c7 -41 -10 -89 -30
-89 -30 0 -32 114 -3 132 17 10 27 -3 33 -43z"/>
<path d="M6827 2843 c-11 -11 -8 -193 3 -193 6 0 10 40 10 100 0 100 -1 106
-13 93z"/>
<path d="M2290 2825 c0 -8 9 -37 20 -65 11 -28 20 -64 20 -81 0 -18 4 -28 10
-24 6 3 10 24 10 45 0 22 9 62 20 90 17 42 17 50 5 50 -8 0 -15 -6 -15 -12 -1
-7 -7 -26 -14 -43 l-13 -30 -12 43 c-11 40 -31 58 -31 27z"/>
<path d="M2473 2814 c-20 -32 -23 -115 -4 -137 19 -24 57 -21 75 5 23 33 21
113 -4 138 -27 27 -46 25 -67 -6z m60 -79 c-7 -36 -27 -60 -42 -51 -18 12 -13
102 6 122 16 16 18 15 29 -12 7 -16 10 -42 7 -59z"/>
<path d="M2640 2761 c0 -71 2 -82 22 -95 28 -20 33 -20 52 0 12 11 16 36 16
95 0 43 -4 79 -9 79 -4 0 -12 -36 -15 -80 -7 -72 -18 -102 -33 -87 -2 3 -7 42
-10 86 -3 45 -10 81 -14 81 -5 0 -9 -36 -9 -79z"/>
<path d="M2827 2833 c-11 -11 -8 -183 3 -183 6 0 10 10 10 23 0 12 4 28 9 36
6 10 12 4 21 -23 12 -37 30 -49 30 -20 0 8 -4 24 -10 34 -7 12 -5 27 6 49 11
23 12 35 4 50 -16 31 -58 50 -73 34z m47 -39 c3 -8 1 -25 -5 -36 -15 -27 -34
-8 -25 26 7 29 21 34 30 10z"/>
<path d="M3100 2744 c0 -72 3 -95 13 -92 6 3 13 15 15 29 2 13 5 30 8 38 8 23
34 -8 34 -41 0 -17 4 -27 10 -23 6 3 10 47 10 98 0 56 -4 87 -9 82 -5 -6 -11
-28 -13 -50 -2 -28 -8 -41 -20 -43 -14 -3 -18 4 -18 31 0 41 -8 67 -21 67 -5
0 -9 -43 -9 -96z"/>
<path d="M3450 2783 c0 -32 -3 -75 -7 -97 -5 -31 -3 -38 8 -34 8 2 15 17 17
32 2 17 12 30 26 36 58 22 38 120 -24 120 -18 0 -20 -7 -20 -57z m49 15 c9
-24 -2 -58 -19 -58 -11 0 -14 63 -3 73 10 11 13 9 22 -15z"/>
<path d="M3617 2833 c-4 -3 -7 -46 -7 -95 0 -65 3 -89 12 -86 7 3 15 16 19 29
3 14 18 37 33 52 14 14 26 35 26 47 0 38 -60 77 -83 53z m54 -35 c3 -25 -3
-43 -17 -58 -12 -12 -14 -11 -14 12 0 33 9 58 21 58 5 0 10 -6 10 -12z"/>
<path d="M3890 2750 c0 -73 3 -90 15 -90 11 0 15 12 15 45 0 25 3 45 8 45 4 0
18 -18 32 -39 13 -22 28 -38 32 -35 12 8 10 164 -2 164 -5 0 -10 -22 -10 -50
0 -27 -4 -50 -9 -50 -6 0 -22 22 -38 50 -15 27 -31 50 -35 50 -5 0 -8 -40 -8
-90z"/>
<path d="M4090 2751 c0 -93 6 -107 40 -96 26 8 26 25 0 25 -15 0 -20 7 -20 25
0 16 6 25 15 25 8 0 15 4 15 9 0 5 -7 11 -15 15 -23 8 -19 57 5 63 30 8 24 23
-10 23 l-30 0 0 -89z"/>
<path d="M4242 2828 c-19 -19 -14 -39 18 -87 33 -48 31 -61 -6 -61 -13 0 -24
-4 -24 -10 0 -5 16 -10 35 -10 51 0 57 35 16 98 -17 27 -31 52 -31 55 0 4 12
7 26 7 14 0 23 4 19 10 -8 14 -38 13 -53 -2z"/>
<path d="M4403 2833 c-21 -8 -15 -51 12 -91 14 -20 25 -42 25 -49 0 -7 -11
-13 -25 -13 -14 0 -25 -4 -25 -10 0 -5 14 -10 30 -10 53 0 57 67 6 109 -26 22
-20 51 10 51 14 0 23 4 19 10 -6 10 -31 12 -52 3z"/>
<path d="M4660 2745 c0 -57 4 -95 10 -95 6 0 10 38 10 95 0 57 -4 95 -10 95
-6 0 -10 -38 -10 -95z"/>
<path d="M4780 2820 c-26 -26 -25 -33 6 -80 27 -40 27 -73 0 -68 -8 2 -15 -1
-15 -7 -1 -5 11 -10 27 -10 38 0 41 41 7 100 l-27 45 26 10 c30 11 32 16 11
24 -9 3 -24 -3 -35 -14z"/>
<path d="M5031 2814 c-30 -38 -28 -104 3 -140 23 -27 24 -28 50 -11 31 20 40
53 33 110 -9 66 -51 86 -86 41z m62 -40 c11 -37 -9 -89 -33 -89 -11 0 -16 14
-18 49 -2 27 -1 55 2 63 10 24 40 10 49 -23z"/>
<path d="M6550 2795 c0 -25 -4 -45 -8 -45 -5 0 -17 18 -28 40 -10 22 -22 40
-26 40 -5 0 -8 -40 -8 -90 0 -53 4 -90 10 -90 6 0 10 23 10 51 0 46 2 50 16
38 8 -7 24 -29 34 -48 l19 -36 1 93 c0 55 -4 92 -10 92 -5 0 -10 -20 -10 -45z"/>
<path d="M6673 2833 c-7 -2 -13 -14 -13 -25 0 -22 30 -78 42 -78 4 0 8 -11 8
-25 0 -20 -5 -25 -26 -25 -16 0 -24 -5 -21 -12 4 -14 46 -12 61 2 17 16 8 60
-18 91 -30 36 -30 53 2 57 12 2 20 8 17 13 -7 10 -32 11 -52 2z"/>
<path d="M6936 2824 c-3 -9 -6 -49 -6 -90 l0 -74 29 0 c16 0 33 6 39 13 15 17
9 131 -7 151 -17 20 -47 21 -55 0z m35 -57 c-16 -16 -26 20 -10 40 13 15 14
14 17 -7 2 -12 -1 -27 -7 -33z m19 -56 c0 -11 -5 -23 -11 -27 -15 -9 -33 12
-26 30 9 23 37 20 37 -3z"/>
<path d="M7100 2746 c0 -53 4 -96 9 -96 13 0 16 18 16 104 0 54 -4 81 -12 83
-10 4 -13 -19 -13 -91z"/>
<path d="M7220 2771 c0 -38 -3 -76 -6 -84 -7 -20 26 -38 54 -30 26 6 19 23 -9
23 -17 0 -19 7 -19 80 0 47 -4 80 -10 80 -6 0 -10 -30 -10 -69z"/>
<path d="M7368 2750 c-2 -67 0 -90 10 -90 9 0 12 25 12 90 0 50 -4 90 -9 90
-5 0 -11 -41 -13 -90z"/>
<path d="M7470 2830 c0 -6 7 -13 15 -16 11 -5 15 -24 15 -80 0 -43 4 -74 10
-74 6 0 10 31 10 72 0 52 4 76 17 90 15 17 14 18 -25 18 -23 0 -42 -5 -42 -10z"/>
<path d="M7630 2815 c0 -15 4 -35 10 -45 5 -10 14 -43 18 -72 10 -58 12 -55
34 42 9 36 19 73 23 84 6 14 5 18 -6 14 -7 -2 -18 -19 -23 -36 -11 -40 -25
-41 -33 -2 -7 39 -23 49 -23 15z"/>
<path d="M7790 2815 c0 -14 5 -25 10 -25 6 0 10 4 10 9 0 5 3 16 6 25 4 11 1
16 -10 16 -10 0 -16 -9 -16 -25z"/>
<path d="M7840 2816 c0 -14 5 -26 10 -26 6 0 10 7 10 15 0 8 0 18 1 22 0 4 -4
9 -10 11 -6 2 -11 -8 -11 -22z"/>
<path d="M2136 2823 c-12 -12 -6 -43 9 -43 8 0 15 9 15 19 0 21 -13 34 -24 24z"/>
<path d="M2186 2814 c-10 -25 -7 -34 9 -34 9 0 15 9 15 25 0 28 -15 34 -24 9z"/>
<path d="M3288 2748 c-14 -46 -24 -85 -22 -87 10 -11 44 35 44 61 0 15 5 28
10 28 6 0 10 -15 10 -34 0 -31 23 -66 36 -53 6 6 -38 167 -46 167 -3 0 -17
-37 -32 -82z"/>
<path d="M8454 2618 c-3 -4 -14 -8 -24 -8 -28 0 -35 -19 -14 -35 14 -11 15
-14 5 -15 -8 0 -12 -3 -9 -6 7 -6 58 24 70 41 13 17 9 32 -7 32 -9 0 -18 -4
-21 -9z"/>
<path d="M8381 2513 c-11 -15 -21 -22 -21 -15 0 9 -7 8 -25 -4 -30 -20 -32
-34 -5 -34 11 0 20 -2 20 -5 0 -8 -45 -50 -51 -48 -4 1 -20 -13 -37 -31 -17
-19 -34 -35 -39 -37 -19 -8 -81 -106 -75 -116 5 -7 13 -9 21 -4 9 6 10 11 3
15 -6 4 -9 13 -6 20 6 15 21 16 41 3 7 -5 21 -3 30 2 10 6 15 11 10 11 -4 0 4
18 17 39 14 21 22 43 18 47 -4 5 1 2 11 -5 9 -8 20 -11 24 -7 3 3 1 6 -5 6
-17 0 -15 35 4 51 13 10 17 10 26 -2 7 -11 9 -9 5 9 -4 15 2 28 19 41 14 11
24 29 24 45 0 20 4 24 17 19 11 -4 12 -8 5 -11 -7 -2 -12 -8 -12 -13 0 -4 7
-6 15 -3 19 8 19 28 1 43 -11 9 -18 6 -35 -16z"/>
<path d="M8125 2190 c-3 -6 1 -7 9 -4 18 7 21 14 7 14 -6 0 -13 -4 -16 -10z"/>
<path d="M8070 2170 c-6 -16 -9 -50 -4 -50 14 0 44 22 44 32 0 7 -5 7 -14 -1
-11 -10 -15 -8 -19 6 -3 10 -6 16 -7 13z"/>
<path d="M8026 2085 c-4 -14 -13 -25 -20 -25 -8 0 -16 -5 -18 -11 -3 -9 -22
-16 -52 -18 -5 -1 -3 -8 4 -16 8 -9 24 -13 44 -10 17 2 37 4 43 4 8 1 11 11 9
24 -2 12 0 34 5 50 4 15 4 27 -1 27 -4 0 -11 -11 -14 -25z"/>
<path d="M7925 1992 c-5 -4 -10 -16 -10 -27 0 -15 -6 -19 -22 -18 -13 2 -23
-1 -23 -7 0 -17 17 -20 43 -7 28 13 44 37 26 37 -6 0 -9 7 -5 15 6 17 5 18 -9
7z"/>
<path d="M7796 1848 c3 -4 9 -8 15 -8 5 0 9 4 9 8 0 5 -7 9 -15 9 -8 0 -12 -4
-9 -9z"/>
<path d="M7730 1775 c0 -8 4 -15 10 -15 5 0 7 7 4 15 -4 8 -8 15 -10 15 -2 0
-4 -7 -4 -15z"/>
<path d="M7580 1673 c-29 -20 -38 -27 -65 -51 -12 -9 -15 -13 -8 -9 6 5 17 6
23 2 5 -3 10 -2 10 3 0 6 10 13 23 16 12 3 30 17 40 31 21 29 12 32 -23 8z"/>
<path d="M7423 1545 c-15 -16 -16 -25 -5 -25 4 0 13 9 20 20 14 23 3 26 -15 5z"/>
<path d="M6833 1212 c-49 -19 -61 -36 -27 -38 13 -1 22 1 19 6 -6 10 44 32 56
25 5 -4 9 1 9 9 0 19 -2 19 -57 -2z"/>
</g>
</svg>
