<?xml version="1.0" standalone="no"?>
<svg xmlns="http://www.w3.org/2000/svg" width="1024" height="1024" viewBox="0 0 1024 1024"><defs><clipPath id="clip-path-dot-color"><path d="M 62 403v 31h 15.5a 15.5 15.5, 0, 0, 0, 0 -31" transform="rotate(180,77.5,418.5)"/><circle cx="77.5" cy="573.5" r="15.5" transform="rotate(0,77.5,573.5)"/><path d="M 62 620v 31h 15.5a 15.5 15.5, 0, 0, 0, 0 -31" transform="rotate(180,77.5,635.5)"/><path d="M 62 682v 31h 15.5a 15.5 15.5, 0, 0, 0, 0 -31" transform="rotate(180,77.5,697.5)"/><path d="M 93 310v 31h 15.5a 15.5 15.5, 0, 0, 0, 0 -31" transform="rotate(180,108.5,325.5)"/><rect x="93" y="403" width="31" height="31" transform="rotate(0,108.5,418.5)"/><path d="M 93 434v 31h 31v -15.5a 15.5 15.5, 0, 0, 0, -15.5 -15.5" transform="rotate(180,108.5,449.5)"/><path d="M 93 527v 31h 15.5a 15.5 15.5, 0, 0, 0, 0 -31" transform="rotate(180,108.5,542.5)"/><path d="M 93 620v 31h 31v -15.5a 15.5 15.5, 0, 0, 0, -15.5 -15.5" transform="rotate(0,108.5,635.5)"/><rect x="93" y="651" width="31" height="31" transform="rotate(0,108.5,666.5)"/><rect x="93" y="682" width="31" height="31" transform="rotate(0,108.5,697.5)"/><path d="M 124 310v 31h 31v -15.5a 15.5 15.5, 0, 0, 0, -15.5 -15.5" transform="rotate(0,139.5,325.5)"/><path d="M 124 341v 31h 15.5a 15.5 15.5, 0, 0, 0, 0 -31" transform="rotate(90,139.5,356.5)"/><rect x="124" y="403" width="31" height="31" transform="rotate(0,139.5,418.5)"/><path d="M 124 434v 31h 31v -15.5a 15.5 15.5, 0, 0, 0, -15.5 -15.5" transform="rotate(90,139.5,449.5)"/><path d="M 124 496v 31h 31v -15.5a 15.5 15.5, 0, 0, 0, -15.5 -15.5" transform="rotate(-90,139.5,511.5)"/><rect x="124" y="527" width="31" height="31" transform="rotate(0,139.5,542.5)"/><path d="M 124 682v 31h 15.5a 15.5 15.5, 0, 0, 0, 0 -31" transform="rotate(0,139.5,697.5)"/><path d="M 155 372v 31h 31v -15.5a 15.5 15.5, 0, 0, 0, -15.5 -15.5" transform="rotate(-90,170.5,387.5)"/><path d="M 155 403v 31h 31v -15.5a 15.5 15.5, 0, 0, 0, -15.5 -15.5" transform="rotate(90,170.5,418.5)"/><rect x="155" y="496" width="31" height="31" transform="rotate(0,170.5,511.5)"/><path d="M 155 527v 31h 31v -15.5a 15.5 15.5, 0, 0, 0, -15.5 -15.5" transform="rotate(90,170.5,542.5)"/><path d="M 155 589v 31h 15.5a 15.5 15.5, 0, 0, 0, 0 -31" transform="rotate(180,170.5,604.5)"/><path d="M 155 651v 31h 15.5a 15.5 15.5, 0, 0, 0, 0 -31" transform="rotate(180,170.5,666.5)"/><path d="M 186 372v 31h 15.5a 15.5 15.5, 0, 0, 0, 0 -31" transform="rotate(0,201.5,387.5)"/><circle cx="201.5" cy="449.5" r="15.5" transform="rotate(0,201.5,449.5)"/><rect x="186" y="496" width="31" height="31" transform="rotate(0,201.5,511.5)"/><path d="M 186 589v 31h 31v -15.5a 15.5 15.5, 0, 0, 0, -15.5 -15.5" transform="rotate(0,201.5,604.5)"/><rect x="186" y="620" width="31" height="31" transform="rotate(0,201.5,635.5)"/><rect x="186" y="651" width="31" height="31" transform="rotate(0,201.5,666.5)"/><circle cx="232.5" cy="418.5" r="15.5" transform="rotate(0,232.5,418.5)"/><path d="M 217 465v 31h 15.5a 15.5 15.5, 0, 0, 0, 0 -31" transform="rotate(-90,232.5,480.5)"/><rect x="217" y="496" width="31" height="31" transform="rotate(0,232.5,511.5)"/><path d="M 217 558v 31h 15.5a 15.5 15.5, 0, 0, 0, 0 -31" transform="rotate(180,232.5,573.5)"/><path d="M 217 651v 31h 15.5a 15.5 15.5, 0, 0, 0, 0 -31" transform="rotate(0,232.5,666.5)"/><circle cx="263.5" cy="325.5" r="15.5" transform="rotate(0,263.5,325.5)"/><path d="M 248 372v 31h 15.5a 15.5 15.5, 0, 0, 0, 0 -31" transform="rotate(180,263.5,387.5)"/><circle cx="263.5" cy="449.5" r="15.5" transform="rotate(0,263.5,449.5)"/><rect x="248" y="496" width="31" height="31" transform="rotate(0,263.5,511.5)"/><rect x="248" y="558" width="31" height="31" transform="rotate(0,263.5,573.5)"/><path d="M 248 620v 31h 15.5a 15.5 15.5, 0, 0, 0, 0 -31" transform="rotate(180,263.5,635.5)"/><path d="M 248 682v 31h 15.5a 15.5 15.5, 0, 0, 0, 0 -31" transform="rotate(180,263.5,697.5)"/><path d="M 279 341v 31h 31v -15.5a 15.5 15.5, 0, 0, 0, -15.5 -15.5" transform="rotate(-90,294.5,356.5)"/><rect x="279" y="372" width="31" height="31" transform="rotate(0,294.5,387.5)"/><path d="M 279 403v 31h 31v -15.5a 15.5 15.5, 0, 0, 0, -15.5 -15.5" transform="rotate(180,294.5,418.5)"/><path d="M 279 465v 31h 15.5a 15.5 15.5, 0, 0, 0, 0 -31" transform="rotate(-90,294.5,480.5)"/><rect x="279" y="496" width="31" height="31" transform="rotate(0,294.5,511.5)"/><rect x="279" y="527" width="31" height="31" transform="rotate(0,294.5,542.5)"/><rect x="279" y="558" width="31" height="31" transform="rotate(0,294.5,573.5)"/><rect x="279" y="589" width="31" height="31" transform="rotate(0,294.5,604.5)"/><rect x="279" y="620" width="31" height="31" transform="rotate(0,294.5,635.5)"/><rect x="279" y="651" width="31" height="31" transform="rotate(0,294.5,666.5)"/><path d="M 279 682v 31h 31v -15.5a 15.5 15.5, 0, 0, 0, -15.5 -15.5" transform="rotate(90,294.5,697.5)"/><path d="M 310 93v 31h 15.5a 15.5 15.5, 0, 0, 0, 0 -31" transform="rotate(-90,325.5,108.5)"/><rect x="310" y="124" width="31" height="31" transform="rotate(0,325.5,139.5)"/><path d="M 310 155v 31h 15.5a 15.5 15.5, 0, 0, 0, 0 -31" transform="rotate(90,325.5,170.5)"/><path d="M 310 217v 31h 31v -15.5a 15.5 15.5, 0, 0, 0, -15.5 -15.5" transform="rotate(-90,325.5,232.5)"/><path d="M 310 248v 31h 15.5a 15.5 15.5, 0, 0, 0, 0 -31" transform="rotate(90,325.5,263.5)"/><path d="M 310 341v 31h 15.5a 15.5 15.5, 0, 0, 0, 0 -31" transform="rotate(0,325.5,356.5)"/><rect x="310" y="403" width="31" height="31" transform="rotate(0,325.5,418.5)"/><path d="M 310 496v 31h 31v -15.5a 15.5 15.5, 0, 0, 0, -15.5 -15.5" transform="rotate(0,325.5,511.5)"/><path d="M 310 527v 31h 31v -15.5a 15.5 15.5, 0, 0, 0, -15.5 -15.5" transform="rotate(90,325.5,542.5)"/><path d="M 310 651v 31h 15.5a 15.5 15.5, 0, 0, 0, 0 -31" transform="rotate(0,325.5,666.5)"/><path d="M 310 868v 31h 15.5a 15.5 15.5, 0, 0, 0, 0 -31" transform="rotate(-90,325.5,883.5)"/><path d="M 310 899v 31h 15.5a 15.5 15.5, 0, 0, 0, 0 -31" transform="rotate(90,325.5,914.5)"/><path d="M 341 186v 31h 31v -15.5a 15.5 15.5, 0, 0, 0, -15.5 -15.5" transform="rotate(-90,356.5,201.5)"/><path d="M 341 217v 31h 31v -15.5a 15.5 15.5, 0, 0, 0, -15.5 -15.5" transform="rotate(90,356.5,232.5)"/><path d="M 341 310v 31h 15.5a 15.5 15.5, 0, 0, 0, 0 -31" transform="rotate(180,356.5,325.5)"/><path d="M 341 372v 31h 31v -15.5a 15.5 15.5, 0, 0, 0, -15.5 -15.5" transform="rotate(-90,356.5,387.5)"/><path d="M 341 403v 31h 31v -15.5a 15.5 15.5, 0, 0, 0, -15.5 -15.5" transform="rotate(90,356.5,418.5)"/><path d="M 341 465v 31h 15.5a 15.5 15.5, 0, 0, 0, 0 -31" transform="rotate(180,356.5,480.5)"/><path d="M 341 589v 31h 15.5a 15.5 15.5, 0, 0, 0, 0 -31" transform="rotate(180,356.5,604.5)"/><path d="M 341 713v 31h 15.5a 15.5 15.5, 0, 0, 0, 0 -31" transform="rotate(-90,356.5,728.5)"/><rect x="341" y="744" width="31" height="31" transform="rotate(0,356.5,759.5)"/><rect x="341" y="775" width="31" height="31" transform="rotate(0,356.5,790.5)"/><path d="M 341 806v 31h 31v -15.5a 15.5 15.5, 0, 0, 0, -15.5 -15.5" transform="rotate(180,356.5,821.5)"/><circle cx="356.5" cy="945.5" r="15.5" transform="rotate(0,356.5,945.5)"/><path d="M 372 62v 31h 15.5a 15.5 15.5, 0, 0, 0, 0 -31" transform="rotate(180,387.5,77.5)"/><circle cx="387.5" cy="139.5" r="15.5" transform="rotate(0,387.5,139.5)"/><path d="M 372 186v 31h 15.5a 15.5 15.5, 0, 0, 0, 0 -31" transform="rotate(0,387.5,201.5)"/><circle cx="387.5" cy="263.5" r="15.5" transform="rotate(0,387.5,263.5)"/><path d="M 372 310v 31h 31v -15.5a 15.5 15.5, 0, 0, 0, -15.5 -15.5" transform="rotate(0,387.5,325.5)"/><rect x="372" y="341" width="31" height="31" transform="rotate(0,387.5,356.5)"/><rect x="372" y="372" width="31" height="31" transform="rotate(0,387.5,387.5)"/><path d="M 372 434v 31h 15.5a 15.5 15.5, 0, 0, 0, 0 -31" transform="rotate(-90,387.5,449.5)"/><path d="M 372 465v 31h 31v -15.5a 15.5 15.5, 0, 0, 0, -15.5 -15.5" transform="rotate(90,387.5,480.5)"/><path d="M 372 558v 31h 31v -15.5a 15.5 15.5, 0, 0, 0, -15.5 -15.5" transform="rotate(-90,387.5,573.5)"/><path d="M 372 589v 31h 31v -15.5a 15.5 15.5, 0, 0, 0, -15.5 -15.5" transform="rotate(90,387.5,604.5)"/><path d="M 372 744v 31h 15.5a 15.5 15.5, 0, 0, 0, 0 -31" transform="rotate(0,387.5,759.5)"/><rect x="372" y="806" width="31" height="31" transform="rotate(0,387.5,821.5)"/><rect x="372" y="837" width="31" height="31" transform="rotate(0,387.5,852.5)"/><rect x="372" y="868" width="31" height="31" transform="rotate(0,387.5,883.5)"/><path d="M 372 899v 31h 15.5a 15.5 15.5, 0, 0, 0, 0 -31" transform="rotate(90,387.5,914.5)"/><path d="M 403 62v 31h 15.5a 15.5 15.5, 0, 0, 0, 0 -31" transform="rotate(0,418.5,77.5)"/><circle cx="418.5" cy="232.5" r="15.5" transform="rotate(0,418.5,232.5)"/><circle cx="418.5" cy="294.5" r="15.5" transform="rotate(0,418.5,294.5)"/><path d="M 403 372v 31h 15.5a 15.5 15.5, 0, 0, 0, 0 -31" transform="rotate(0,418.5,387.5)"/><rect x="403" y="558" width="31" height="31" transform="rotate(0,418.5,573.5)"/><path d="M 403 620v 31h 15.5a 15.5 15.5, 0, 0, 0, 0 -31" transform="rotate(180,418.5,635.5)"/><path d="M 403 682v 31h 15.5a 15.5 15.5, 0, 0, 0, 0 -31" transform="rotate(180,418.5,697.5)"/><path d="M 403 806v 31h 31v -15.5a 15.5 15.5, 0, 0, 0, -15.5 -15.5" transform="rotate(0,418.5,821.5)"/><rect x="403" y="837" width="31" height="31" transform="rotate(0,418.5,852.5)"/><path d="M 403 930v 31h 15.5a 15.5 15.5, 0, 0, 0, 0 -31" transform="rotate(180,418.5,945.5)"/><path d="M 434 124v 31h 31v -15.5a 15.5 15.5, 0, 0, 0, -15.5 -15.5" transform="rotate(-90,449.5,139.5)"/><rect x="434" y="155" width="31" height="31" transform="rotate(0,449.5,170.5)"/><path d="M 434 186v 31h 31v -15.5a 15.5 15.5, 0, 0, 0, -15.5 -15.5" transform="rotate(180,449.5,201.5)"/><circle cx="449.5" cy="263.5" r="15.5" transform="rotate(0,449.5,263.5)"/><circle cx="449.5" cy="356.5" r="15.5" transform="rotate(0,449.5,356.5)"/><circle cx="449.5" cy="418.5" r="15.5" transform="rotate(0,449.5,418.5)"/><circle cx="449.5" cy="511.5" r="15.5" transform="rotate(0,449.5,511.5)"/><path d="M 434 558v 31h 31v -15.5a 15.5 15.5, 0, 0, 0, -15.5 -15.5" transform="rotate(0,449.5,573.5)"/><rect x="434" y="589" width="31" height="31" transform="rotate(0,449.5,604.5)"/><rect x="434" y="620" width="31" height="31" transform="rotate(0,449.5,635.5)"/><rect x="434" y="651" width="31" height="31" transform="rotate(0,449.5,666.5)"/><rect x="434" y="682" width="31" height="31" transform="rotate(0,449.5,697.5)"/><path d="M 434 713v 31h 15.5a 15.5 15.5, 0, 0, 0, 0 -31" transform="rotate(90,449.5,728.5)"/><path d="M 434 775v 31h 15.5a 15.5 15.5, 0, 0, 0, 0 -31" transform="rotate(180,449.5,790.5)"/><rect x="434" y="837" width="31" height="31" transform="rotate(0,449.5,852.5)"/><rect x="434" y="868" width="31" height="31" transform="rotate(0,449.5,883.5)"/><rect x="434" y="899" width="31" height="31" transform="rotate(0,449.5,914.5)"/><rect x="434" y="930" width="31" height="31" transform="rotate(0,449.5,945.5)"/><path d="M 465 93v 31h 15.5a 15.5 15.5, 0, 0, 0, 0 -31" transform="rotate(-90,480.5,108.5)"/><path d="M 465 124v 31h 31v -15.5a 15.5 15.5, 0, 0, 0, -15.5 -15.5" transform="rotate(90,480.5,139.5)"/><path d="M 465 186v 31h 15.5a 15.5 15.5, 0, 0, 0, 0 -31" transform="rotate(0,480.5,201.5)"/><circle cx="480.5" cy="325.5" r="15.5" transform="rotate(0,480.5,325.5)"/><circle cx="480.5" cy="449.5" r="15.5" transform="rotate(0,480.5,449.5)"/><path d="M 465 527v 31h 15.5a 15.5 15.5, 0, 0, 0, 0 -31" transform="rotate(180,480.5,542.5)"/><rect x="465" y="651" width="31" height="31" transform="rotate(0,480.5,666.5)"/><path d="M 465 744v 31h 31v -15.5a 15.5 15.5, 0, 0, 0, -15.5 -15.5" transform="rotate(-90,480.5,759.5)"/><rect x="465" y="775" width="31" height="31" transform="rotate(0,480.5,790.5)"/><rect x="465" y="837" width="31" height="31" transform="rotate(0,480.5,852.5)"/><rect x="465" y="868" width="31" height="31" transform="rotate(0,480.5,883.5)"/><rect x="465" y="899" width="31" height="31" transform="rotate(0,480.5,914.5)"/><rect x="465" y="930" width="31" height="31" transform="rotate(0,480.5,945.5)"/><path d="M 496 62v 31h 15.5a 15.5 15.5, 0, 0, 0, 0 -31" transform="rotate(180,511.5,77.5)"/><path d="M 496 217v 31h 15.5a 15.5 15.5, 0, 0, 0, 0 -31" transform="rotate(-90,511.5,232.5)"/><path d="M 496 248v 31h 15.5a 15.5 15.5, 0, 0, 0, 0 -31" transform="rotate(90,511.5,263.5)"/><path d="M 496 372v 31h 15.5a 15.5 15.5, 0, 0, 0, 0 -31" transform="rotate(180,511.5,387.5)"/><path d="M 496 465v 31h 15.5a 15.5 15.5, 0, 0, 0, 0 -31" transform="rotate(-90,511.5,480.5)"/><rect x="496" y="496" width="31" height="31" transform="rotate(0,511.5,511.5)"/><rect x="496" y="527" width="31" height="31" transform="rotate(0,511.5,542.5)"/><rect x="496" y="558" width="31" height="31" transform="rotate(0,511.5,573.5)"/><rect x="496" y="589" width="31" height="31" transform="rotate(0,511.5,604.5)"/><rect x="496" y="620" width="31" height="31" transform="rotate(0,511.5,635.5)"/><rect x="496" y="651" width="31" height="31" transform="rotate(0,511.5,666.5)"/><rect x="496" y="682" width="31" height="31" transform="rotate(0,511.5,697.5)"/><rect x="496" y="713" width="31" height="31" transform="rotate(0,511.5,728.5)"/><rect x="496" y="744" width="31" height="31" transform="rotate(0,511.5,759.5)"/><rect x="496" y="775" width="31" height="31" transform="rotate(0,511.5,790.5)"/><rect x="496" y="806" width="31" height="31" transform="rotate(0,511.5,821.5)"/><rect x="496" y="837" width="31" height="31" transform="rotate(0,511.5,852.5)"/><path d="M 496 899v 31h 31v -15.5a 15.5 15.5, 0, 0, 0, -15.5 -15.5" transform="rotate(0,511.5,914.5)"/><rect x="496" y="930" width="31" height="31" transform="rotate(0,511.5,945.5)"/><rect x="527" y="62" width="31" height="31" transform="rotate(0,542.5,77.5)"/><circle cx="542.5" cy="294.5" r="15.5" transform="rotate(0,542.5,294.5)"/><path d="M 527 341v 31h 31v -15.5a 15.5 15.5, 0, 0, 0, -15.5 -15.5" transform="rotate(-90,542.5,356.5)"/><path d="M 527 372v 31h 31v -15.5a 15.5 15.5, 0, 0, 0, -15.5 -15.5" transform="rotate(90,542.5,387.5)"/><path d="M 527 496v 31h 15.5a 15.5 15.5, 0, 0, 0, 0 -31" transform="rotate(0,542.5,511.5)"/><rect x="527" y="558" width="31" height="31" transform="rotate(0,542.5,573.5)"/><rect x="527" y="589" width="31" height="31" transform="rotate(0,542.5,604.5)"/><rect x="527" y="620" width="31" height="31" transform="rotate(0,542.5,635.5)"/><rect x="527" y="713" width="31" height="31" transform="rotate(0,542.5,728.5)"/><path d="M 527 744v 31h 31v -15.5a 15.5 15.5, 0, 0, 0, -15.5 -15.5" transform="rotate(90,542.5,759.5)"/><path d="M 527 806v 31h 31v -15.5a 15.5 15.5, 0, 0, 0, -15.5 -15.5" transform="rotate(0,542.5,821.5)"/><rect x="527" y="837" width="31" height="31" transform="rotate(0,542.5,852.5)"/><path d="M 527 930v 31h 15.5a 15.5 15.5, 0, 0, 0, 0 -31" transform="rotate(0,542.5,945.5)"/><path d="M 558 62v 31h 15.5a 15.5 15.5, 0, 0, 0, 0 -31" transform="rotate(0,573.5,77.5)"/><path d="M 558 124v 31h 31v -15.5a 15.5 15.5, 0, 0, 0, -15.5 -15.5" transform="rotate(-90,573.5,139.5)"/><rect x="558" y="155" width="31" height="31" transform="rotate(0,573.5,170.5)"/><rect x="558" y="186" width="31" height="31" transform="rotate(0,573.5,201.5)"/><rect x="558" y="217" width="31" height="31" transform="rotate(0,573.5,232.5)"/><path d="M 558 248v 31h 15.5a 15.5 15.5, 0, 0, 0, 0 -31" transform="rotate(90,573.5,263.5)"/><path d="M 558 310v 31h 15.5a 15.5 15.5, 0, 0, 0, 0 -31" transform="rotate(-90,573.5,325.5)"/><path d="M 558 341v 31h 31v -15.5a 15.5 15.5, 0, 0, 0, -15.5 -15.5" transform="rotate(90,573.5,356.5)"/><path d="M 558 434v 31h 15.5a 15.5 15.5, 0, 0, 0, 0 -31" transform="rotate(180,573.5,449.5)"/><rect x="558" y="558" width="31" height="31" transform="rotate(0,573.5,573.5)"/><rect x="558" y="589" width="31" height="31" transform="rotate(0,573.5,604.5)"/><path d="M 558 620v 31h 31v -15.5a 15.5 15.5, 0, 0, 0, -15.5 -15.5" transform="rotate(90,573.5,635.5)"/><path d="M 558 713v 31h 15.5a 15.5 15.5, 0, 0, 0, 0 -31" transform="rotate(0,573.5,728.5)"/><path d="M 558 775v 31h 15.5a 15.5 15.5, 0, 0, 0, 0 -31" transform="rotate(180,573.5,790.5)"/><rect x="558" y="837" width="31" height="31" transform="rotate(0,573.5,852.5)"/><circle cx="573.5" cy="914.5" r="15.5" transform="rotate(0,573.5,914.5)"/><rect x="589" y="124" width="31" height="31" transform="rotate(0,604.5,139.5)"/><path d="M 589 186v 31h 15.5a 15.5 15.5, 0, 0, 0, 0 -31" transform="rotate(0,604.5,201.5)"/><path d="M 589 372v 31h 15.5a 15.5 15.5, 0, 0, 0, 0 -31" transform="rotate(180,604.5,387.5)"/><path d="M 589 434v 31h 15.5a 15.5 15.5, 0, 0, 0, 0 -31" transform="rotate(0,604.5,449.5)"/><path d="M 589 496v 31h 15.5a 15.5 15.5, 0, 0, 0, 0 -31" transform="rotate(180,604.5,511.5)"/><rect x="589" y="558" width="31" height="31" transform="rotate(0,604.5,573.5)"/><rect x="589" y="589" width="31" height="31" transform="rotate(0,604.5,604.5)"/><path d="M 589 651v 31h 15.5a 15.5 15.5, 0, 0, 0, 0 -31" transform="rotate(-90,604.5,666.5)"/><path d="M 589 682v 31h 15.5a 15.5 15.5, 0, 0, 0, 0 -31" transform="rotate(90,604.5,697.5)"/><path d="M 589 744v 31h 31v -15.5a 15.5 15.5, 0, 0, 0, -15.5 -15.5" transform="rotate(-90,604.5,759.5)"/><path d="M 589 775v 31h 31v -15.5a 15.5 15.5, 0, 0, 0, -15.5 -15.5" transform="rotate(90,604.5,790.5)"/><path d="M 589 837v 31h 15.5a 15.5 15.5, 0, 0, 0, 0 -31" transform="rotate(0,604.5,852.5)"/><circle cx="635.5" cy="77.5" r="15.5" transform="rotate(0,635.5,77.5)"/><path d="M 620 124v 31h 31v -15.5a 15.5 15.5, 0, 0, 0, -15.5 -15.5" transform="rotate(0,635.5,139.5)"/><path d="M 620 155v 31h 15.5a 15.5 15.5, 0, 0, 0, 0 -31" transform="rotate(90,635.5,170.5)"/><path d="M 620 248v 31h 15.5a 15.5 15.5, 0, 0, 0, 0 -31" transform="rotate(-90,635.5,263.5)"/><path d="M 620 279v 31h 31v -15.5a 15.5 15.5, 0, 0, 0, -15.5 -15.5" transform="rotate(180,635.5,294.5)"/><path d="M 620 341v 31h 31v -15.5a 15.5 15.5, 0, 0, 0, -15.5 -15.5" transform="rotate(-90,635.5,356.5)"/><path d="M 620 372v 31h 31v -15.5a 15.5 15.5, 0, 0, 0, -15.5 -15.5" transform="rotate(90,635.5,387.5)"/><path d="M 620 465v 31h 31v -15.5a 15.5 15.5, 0, 0, 0, -15.5 -15.5" transform="rotate(-90,635.5,480.5)"/><rect x="620" y="496" width="31" height="31" transform="rotate(0,635.5,511.5)"/><rect x="620" y="527" width="31" height="31" transform="rotate(0,635.5,542.5)"/><rect x="620" y="558" width="31" height="31" transform="rotate(0,635.5,573.5)"/><rect x="620" y="589" width="31" height="31" transform="rotate(0,635.5,604.5)"/><rect x="620" y="744" width="31" height="31" transform="rotate(0,635.5,759.5)"/><circle cx="635.5" cy="821.5" r="15.5" transform="rotate(0,635.5,821.5)"/><path d="M 620 868v 31h 15.5a 15.5 15.5, 0, 0, 0, 0 -31" transform="rotate(180,635.5,883.5)"/><path d="M 651 279v 31h 31v -15.5a 15.5 15.5, 0, 0, 0, -15.5 -15.5" transform="rotate(0,666.5,294.5)"/><rect x="651" y="310" width="31" height="31" transform="rotate(0,666.5,325.5)"/><path d="M 651 341v 31h 31v -15.5a 15.5 15.5, 0, 0, 0, -15.5 -15.5" transform="rotate(90,666.5,356.5)"/><path d="M 651 434v 31h 15.5a 15.5 15.5, 0, 0, 0, 0 -31" transform="rotate(-90,666.5,449.5)"/><rect x="651" y="465" width="31" height="31" transform="rotate(0,666.5,480.5)"/><rect x="651" y="589" width="31" height="31" transform="rotate(0,666.5,604.5)"/><path d="M 651 651v 31h 31v -15.5a 15.5 15.5, 0, 0, 0, -15.5 -15.5" transform="rotate(-90,666.5,666.5)"/><rect x="651" y="682" width="31" height="31" transform="rotate(0,666.5,697.5)"/><rect x="651" y="713" width="31" height="31" transform="rotate(0,666.5,728.5)"/><rect x="651" y="744" width="31" height="31" transform="rotate(0,666.5,759.5)"/><path d="M 651 837v 31h 31v -15.5a 15.5 15.5, 0, 0, 0, -15.5 -15.5" transform="rotate(-90,666.5,852.5)"/><path d="M 651 868v 31h 31v -15.5a 15.5 15.5, 0, 0, 0, -15.5 -15.5" transform="rotate(90,666.5,883.5)"/><circle cx="666.5" cy="945.5" r="15.5" transform="rotate(0,666.5,945.5)"/><circle cx="697.5" cy="108.5" r="15.5" transform="rotate(0,697.5,108.5)"/><circle cx="697.5" cy="263.5" r="15.5" transform="rotate(0,697.5,263.5)"/><circle cx="697.5" cy="387.5" r="15.5" transform="rotate(0,697.5,387.5)"/><path d="M 682 465v 31h 31v -15.5a 15.5 15.5, 0, 0, 0, -15.5 -15.5" transform="rotate(0,697.5,480.5)"/><path d="M 682 496v 31h 31v -15.5a 15.5 15.5, 0, 0, 0, -15.5 -15.5" transform="rotate(180,697.5,511.5)"/><path d="M 682 558v 31h 15.5a 15.5 15.5, 0, 0, 0, 0 -31" transform="rotate(-90,697.5,573.5)"/><rect x="682" y="589" width="31" height="31" transform="rotate(0,697.5,604.5)"/><rect x="682" y="620" width="31" height="31" transform="rotate(0,697.5,635.5)"/><rect x="682" y="651" width="31" height="31" transform="rotate(0,697.5,666.5)"/><rect x="682" y="682" width="31" height="31" transform="rotate(0,697.5,697.5)"/><rect x="682" y="713" width="31" height="31" transform="rotate(0,697.5,728.5)"/><rect x="682" y="744" width="31" height="31" transform="rotate(0,697.5,759.5)"/><rect x="682" y="775" width="31" height="31" transform="rotate(0,697.5,790.5)"/><rect x="682" y="806" width="31" height="31" transform="rotate(0,697.5,821.5)"/><rect x="682" y="837" width="31" height="31" transform="rotate(0,697.5,852.5)"/><path d="M 713 310v 31h 15.5a 15.5 15.5, 0, 0, 0, 0 -31" transform="rotate(-90,728.5,325.5)"/><path d="M 713 341v 31h 15.5a 15.5 15.5, 0, 0, 0, 0 -31" transform="rotate(90,728.5,356.5)"/><path d="M 713 403v 31h 15.5a 15.5 15.5, 0, 0, 0, 0 -31" transform="rotate(180,728.5,418.5)"/><rect x="713" y="496" width="31" height="31" transform="rotate(0,728.5,511.5)"/><path d="M 713 620v 31h 31v -15.5a 15.5 15.5, 0, 0, 0, -15.5 -15.5" transform="rotate(0,728.5,635.5)"/><rect x="713" y="651" width="31" height="31" transform="rotate(0,728.5,666.5)"/><rect x="713" y="682" width="31" height="31" transform="rotate(0,728.5,697.5)"/><rect x="713" y="806" width="31" height="31" transform="rotate(0,728.5,821.5)"/><path d="M 713 837v 31h 31v -15.5a 15.5 15.5, 0, 0, 0, -15.5 -15.5" transform="rotate(90,728.5,852.5)"/><path d="M 713 899v 31h 15.5a 15.5 15.5, 0, 0, 0, 0 -31" transform="rotate(180,728.5,914.5)"/><path d="M 744 372v 31h 15.5a 15.5 15.5, 0, 0, 0, 0 -31" transform="rotate(-90,759.5,387.5)"/><rect x="744" y="403" width="31" height="31" transform="rotate(0,759.5,418.5)"/><rect x="744" y="434" width="31" height="31" transform="rotate(0,759.5,449.5)"/><rect x="744" y="465" width="31" height="31" transform="rotate(0,759.5,480.5)"/><path d="M 744 496v 31h 31v -15.5a 15.5 15.5, 0, 0, 0, -15.5 -15.5" transform="rotate(90,759.5,511.5)"/><path d="M 744 558v 31h 15.5a 15.5 15.5, 0, 0, 0, 0 -31" transform="rotate(-90,759.5,573.5)"/><path d="M 744 589v 31h 15.5a 15.5 15.5, 0, 0, 0, 0 -31" transform="rotate(90,759.5,604.5)"/><path d="M 744 651v 31h 31v -15.5a 15.5 15.5, 0, 0, 0, -15.5 -15.5" transform="rotate(0,759.5,666.5)"/><rect x="744" y="682" width="31" height="31" transform="rotate(0,759.5,697.5)"/><circle cx="759.5" cy="759.5" r="15.5" transform="rotate(0,759.5,759.5)"/><rect x="744" y="806" width="31" height="31" transform="rotate(0,759.5,821.5)"/><path d="M 744 868v 31h 15.5a 15.5 15.5, 0, 0, 0, 0 -31" transform="rotate(-90,759.5,883.5)"/><rect x="744" y="899" width="31" height="31" transform="rotate(0,759.5,914.5)"/><path d="M 775 310v 31h 15.5a 15.5 15.5, 0, 0, 0, 0 -31" transform="rotate(-90,790.5,325.5)"/><path d="M 775 341v 31h 31v -15.5a 15.5 15.5, 0, 0, 0, -15.5 -15.5" transform="rotate(180,790.5,356.5)"/><rect x="775" y="403" width="31" height="31" transform="rotate(0,790.5,418.5)"/><circle cx="790.5" cy="542.5" r="15.5" transform="rotate(0,790.5,542.5)"/><path d="M 775 620v 31h 15.5a 15.5 15.5, 0, 0, 0, 0 -31" transform="rotate(180,790.5,635.5)"/><rect x="775" y="682" width="31" height="31" transform="rotate(0,790.5,697.5)"/><rect x="775" y="806" width="31" height="31" transform="rotate(0,790.5,821.5)"/><path d="M 775 899v 31h 15.5a 15.5 15.5, 0, 0, 0, 0 -31" transform="rotate(0,790.5,914.5)"/><path d="M 806 341v 31h 31v -15.5a 15.5 15.5, 0, 0, 0, -15.5 -15.5" transform="rotate(0,821.5,356.5)"/><rect x="806" y="372" width="31" height="31" transform="rotate(0,821.5,387.5)"/><path d="M 806 403v 31h 31v -15.5a 15.5 15.5, 0, 0, 0, -15.5 -15.5" transform="rotate(90,821.5,418.5)"/><rect x="806" y="620" width="31" height="31" transform="rotate(0,821.5,635.5)"/><path d="M 806 682v 31h 31v -15.5a 15.5 15.5, 0, 0, 0, -15.5 -15.5" transform="rotate(0,821.5,697.5)"/><rect x="806" y="713" width="31" height="31" transform="rotate(0,821.5,728.5)"/><rect x="806" y="744" width="31" height="31" transform="rotate(0,821.5,759.5)"/><rect x="806" y="775" width="31" height="31" transform="rotate(0,821.5,790.5)"/><rect x="806" y="806" width="31" height="31" transform="rotate(0,821.5,821.5)"/><rect x="806" y="837" width="31" height="31" transform="rotate(0,821.5,852.5)"/><path d="M 806 868v 31h 31v -15.5a 15.5 15.5, 0, 0, 0, -15.5 -15.5" transform="rotate(180,821.5,883.5)"/><circle cx="821.5" cy="945.5" r="15.5" transform="rotate(0,821.5,945.5)"/><path d="M 837 310v 31h 15.5a 15.5 15.5, 0, 0, 0, 0 -31" transform="rotate(180,852.5,325.5)"/><circle cx="852.5" cy="480.5" r="15.5" transform="rotate(0,852.5,480.5)"/><path d="M 837 558v 31h 15.5a 15.5 15.5, 0, 0, 0, 0 -31" transform="rotate(180,852.5,573.5)"/><path d="M 837 620v 31h 31v -15.5a 15.5 15.5, 0, 0, 0, -15.5 -15.5" transform="rotate(0,852.5,635.5)"/><path d="M 837 651v 31h 15.5a 15.5 15.5, 0, 0, 0, 0 -31" transform="rotate(90,852.5,666.5)"/><path d="M 837 806v 31h 31v -15.5a 15.5 15.5, 0, 0, 0, -15.5 -15.5" transform="rotate(0,852.5,821.5)"/><rect x="837" y="837" width="31" height="31" transform="rotate(0,852.5,852.5)"/><rect x="837" y="868" width="31" height="31" transform="rotate(0,852.5,883.5)"/><path d="M 837 899v 31h 15.5a 15.5 15.5, 0, 0, 0, 0 -31" transform="rotate(90,852.5,914.5)"/><rect x="868" y="310" width="31" height="31" transform="rotate(0,883.5,325.5)"/><path d="M 868 341v 31h 31v -15.5a 15.5 15.5, 0, 0, 0, -15.5 -15.5" transform="rotate(180,883.5,356.5)"/><path d="M 868 403v 31h 15.5a 15.5 15.5, 0, 0, 0, 0 -31" transform="rotate(180,883.5,418.5)"/><path d="M 868 496v 31h 31v -15.5a 15.5 15.5, 0, 0, 0, -15.5 -15.5" transform="rotate(-90,883.5,511.5)"/><rect x="868" y="527" width="31" height="31" transform="rotate(0,883.5,542.5)"/><rect x="868" y="558" width="31" height="31" transform="rotate(0,883.5,573.5)"/><circle cx="883.5" cy="697.5" r="15.5" transform="rotate(0,883.5,697.5)"/><circle cx="883.5" cy="790.5" r="15.5" transform="rotate(0,883.5,790.5)"/><rect x="868" y="837" width="31" height="31" transform="rotate(0,883.5,852.5)"/><circle cx="883.5" cy="945.5" r="15.5" transform="rotate(0,883.5,945.5)"/><path d="M 899 310v 31h 31v -15.5a 15.5 15.5, 0, 0, 0, -15.5 -15.5" transform="rotate(0,914.5,325.5)"/><rect x="899" y="341" width="31" height="31" transform="rotate(0,914.5,356.5)"/><rect x="899" y="372" width="31" height="31" transform="rotate(0,914.5,387.5)"/><rect x="899" y="403" width="31" height="31" transform="rotate(0,914.5,418.5)"/><rect x="899" y="496" width="31" height="31" transform="rotate(0,914.5,511.5)"/><path d="M 899 558v 31h 15.5a 15.5 15.5, 0, 0, 0, 0 -31" transform="rotate(0,914.5,573.5)"/><path d="M 899 806v 31h 15.5a 15.5 15.5, 0, 0, 0, 0 -31" transform="rotate(-90,914.5,821.5)"/><rect x="899" y="837" width="31" height="31" transform="rotate(0,914.5,852.5)"/><path d="M 899 899v 31h 15.5a 15.5 15.5, 0, 0, 0, 0 -31" transform="rotate(180,914.5,914.5)"/><path d="M 930 341v 31h 15.5a 15.5 15.5, 0, 0, 0, 0 -31" transform="rotate(0,945.5,356.5)"/><path d="M 930 403v 31h 31v -15.5a 15.5 15.5, 0, 0, 0, -15.5 -15.5" transform="rotate(0,945.5,418.5)"/><rect x="930" y="434" width="31" height="31" transform="rotate(0,945.5,449.5)"/><rect x="930" y="465" width="31" height="31" transform="rotate(0,945.5,480.5)"/><rect x="930" y="496" width="31" height="31" transform="rotate(0,945.5,511.5)"/><path d="M 930 527v 31h 15.5a 15.5 15.5, 0, 0, 0, 0 -31" transform="rotate(90,945.5,542.5)"/><path d="M 930 620v 31h 15.5a 15.5 15.5, 0, 0, 0, 0 -31" transform="rotate(-90,945.5,635.5)"/><rect x="930" y="651" width="31" height="31" transform="rotate(0,945.5,666.5)"/><path d="M 930 682v 31h 15.5a 15.5 15.5, 0, 0, 0, 0 -31" transform="rotate(90,945.5,697.5)"/><path d="M 930 744v 31h 15.5a 15.5 15.5, 0, 0, 0, 0 -31" transform="rotate(-90,945.5,759.5)"/><path d="M 930 775v 31h 15.5a 15.5 15.5, 0, 0, 0, 0 -31" transform="rotate(90,945.5,790.5)"/><path d="M 930 837v 31h 15.5a 15.5 15.5, 0, 0, 0, 0 -31" transform="rotate(0,945.5,852.5)"/><path d="M 930 899v 31h 15.5a 15.5 15.5, 0, 0, 0, 0 -31" transform="rotate(0,945.5,914.5)"/></clipPath><clipPath id="clip-path-corners-square-color-0-0"><path d="M 62 62v 31h 31v -15.5a 15.5 15.5, 0, 0, 0, -15.5 -15.5" transform="rotate(-90,77.5,77.5)"/><rect x="62" y="93" width="31" height="31" transform="rotate(0,77.5,108.5)"/><rect x="62" y="124" width="31" height="31" transform="rotate(0,77.5,139.5)"/><rect x="62" y="155" width="31" height="31" transform="rotate(0,77.5,170.5)"/><rect x="62" y="186" width="31" height="31" transform="rotate(0,77.5,201.5)"/><rect x="62" y="217" width="31" height="31" transform="rotate(0,77.5,232.5)"/><path d="M 62 248v 31h 31v -15.5a 15.5 15.5, 0, 0, 0, -15.5 -15.5" transform="rotate(180,77.5,263.5)"/><rect x="93" y="62" width="31" height="31" transform="rotate(0,108.5,77.5)"/><rect x="93" y="248" width="31" height="31" transform="rotate(0,108.5,263.5)"/><rect x="124" y="62" width="31" height="31" transform="rotate(0,139.5,77.5)"/><rect x="124" y="248" width="31" height="31" transform="rotate(0,139.5,263.5)"/><rect x="155" y="62" width="31" height="31" transform="rotate(0,170.5,77.5)"/><rect x="155" y="248" width="31" height="31" transform="rotate(0,170.5,263.5)"/><rect x="186" y="62" width="31" height="31" transform="rotate(0,201.5,77.5)"/><rect x="186" y="248" width="31" height="31" transform="rotate(0,201.5,263.5)"/><rect x="217" y="62" width="31" height="31" transform="rotate(0,232.5,77.5)"/><rect x="217" y="248" width="31" height="31" transform="rotate(0,232.5,263.5)"/><path d="M 248 62v 31h 31v -15.5a 15.5 15.5, 0, 0, 0, -15.5 -15.5" transform="rotate(0,263.5,77.5)"/><rect x="248" y="93" width="31" height="31" transform="rotate(0,263.5,108.5)"/><rect x="248" y="124" width="31" height="31" transform="rotate(0,263.5,139.5)"/><rect x="248" y="155" width="31" height="31" transform="rotate(0,263.5,170.5)"/><rect x="248" y="186" width="31" height="31" transform="rotate(0,263.5,201.5)"/><rect x="248" y="217" width="31" height="31" transform="rotate(0,263.5,232.5)"/><path d="M 248 248v 31h 31v -15.5a 15.5 15.5, 0, 0, 0, -15.5 -15.5" transform="rotate(90,263.5,263.5)"/></clipPath><clipPath id="clip-path-corners-dot-color-0-0"><path d="M 124 124v 31h 31v -15.5a 15.5 15.5, 0, 0, 0, -15.5 -15.5" transform="rotate(-90,139.5,139.5)"/><rect x="124" y="155" width="31" height="31" transform="rotate(0,139.5,170.5)"/><path d="M 124 186v 31h 31v -15.5a 15.5 15.5, 0, 0, 0, -15.5 -15.5" transform="rotate(180,139.5,201.5)"/><rect x="155" y="124" width="31" height="31" transform="rotate(0,170.5,139.5)"/><rect x="155" y="155" width="31" height="31" transform="rotate(0,170.5,170.5)"/><rect x="155" y="186" width="31" height="31" transform="rotate(0,170.5,201.5)"/><path d="M 186 124v 31h 31v -15.5a 15.5 15.5, 0, 0, 0, -15.5 -15.5" transform="rotate(0,201.5,139.5)"/><rect x="186" y="155" width="31" height="31" transform="rotate(0,201.5,170.5)"/><path d="M 186 186v 31h 31v -15.5a 15.5 15.5, 0, 0, 0, -15.5 -15.5" transform="rotate(90,201.5,201.5)"/></clipPath><clipPath id="clip-path-corners-square-color-1-0"><path d="M 744 62v 31h 31v -15.5a 15.5 15.5, 0, 0, 0, -15.5 -15.5" transform="rotate(-90,759.5,77.5)"/><rect x="744" y="93" width="31" height="31" transform="rotate(0,759.5,108.5)"/><rect x="744" y="124" width="31" height="31" transform="rotate(0,759.5,139.5)"/><rect x="744" y="155" width="31" height="31" transform="rotate(0,759.5,170.5)"/><rect x="744" y="186" width="31" height="31" transform="rotate(0,759.5,201.5)"/><rect x="744" y="217" width="31" height="31" transform="rotate(0,759.5,232.5)"/><path d="M 744 248v 31h 31v -15.5a 15.5 15.5, 0, 0, 0, -15.5 -15.5" transform="rotate(180,759.5,263.5)"/><rect x="775" y="62" width="31" height="31" transform="rotate(0,790.5,77.5)"/><rect x="775" y="248" width="31" height="31" transform="rotate(0,790.5,263.5)"/><rect x="806" y="62" width="31" height="31" transform="rotate(0,821.5,77.5)"/><rect x="806" y="248" width="31" height="31" transform="rotate(0,821.5,263.5)"/><rect x="837" y="62" width="31" height="31" transform="rotate(0,852.5,77.5)"/><rect x="837" y="248" width="31" height="31" transform="rotate(0,852.5,263.5)"/><rect x="868" y="62" width="31" height="31" transform="rotate(0,883.5,77.5)"/><rect x="868" y="248" width="31" height="31" transform="rotate(0,883.5,263.5)"/><rect x="899" y="62" width="31" height="31" transform="rotate(0,914.5,77.5)"/><rect x="899" y="248" width="31" height="31" transform="rotate(0,914.5,263.5)"/><path d="M 930 62v 31h 31v -15.5a 15.5 15.5, 0, 0, 0, -15.5 -15.5" transform="rotate(0,945.5,77.5)"/><rect x="930" y="93" width="31" height="31" transform="rotate(0,945.5,108.5)"/><rect x="930" y="124" width="31" height="31" transform="rotate(0,945.5,139.5)"/><rect x="930" y="155" width="31" height="31" transform="rotate(0,945.5,170.5)"/><rect x="930" y="186" width="31" height="31" transform="rotate(0,945.5,201.5)"/><rect x="930" y="217" width="31" height="31" transform="rotate(0,945.5,232.5)"/><path d="M 930 248v 31h 31v -15.5a 15.5 15.5, 0, 0, 0, -15.5 -15.5" transform="rotate(90,945.5,263.5)"/></clipPath><clipPath id="clip-path-corners-dot-color-1-0"><path d="M 806 124v 31h 31v -15.5a 15.5 15.5, 0, 0, 0, -15.5 -15.5" transform="rotate(-90,821.5,139.5)"/><rect x="806" y="155" width="31" height="31" transform="rotate(0,821.5,170.5)"/><path d="M 806 186v 31h 31v -15.5a 15.5 15.5, 0, 0, 0, -15.5 -15.5" transform="rotate(180,821.5,201.5)"/><rect x="837" y="124" width="31" height="31" transform="rotate(0,852.5,139.5)"/><rect x="837" y="155" width="31" height="31" transform="rotate(0,852.5,170.5)"/><rect x="837" y="186" width="31" height="31" transform="rotate(0,852.5,201.5)"/><path d="M 868 124v 31h 31v -15.5a 15.5 15.5, 0, 0, 0, -15.5 -15.5" transform="rotate(0,883.5,139.5)"/><rect x="868" y="155" width="31" height="31" transform="rotate(0,883.5,170.5)"/><path d="M 868 186v 31h 31v -15.5a 15.5 15.5, 0, 0, 0, -15.5 -15.5" transform="rotate(90,883.5,201.5)"/></clipPath><clipPath id="clip-path-corners-square-color-0-1"><path d="M 62 744v 31h 31v -15.5a 15.5 15.5, 0, 0, 0, -15.5 -15.5" transform="rotate(-90,77.5,759.5)"/><rect x="62" y="775" width="31" height="31" transform="rotate(0,77.5,790.5)"/><rect x="62" y="806" width="31" height="31" transform="rotate(0,77.5,821.5)"/><rect x="62" y="837" width="31" height="31" transform="rotate(0,77.5,852.5)"/><rect x="62" y="868" width="31" height="31" transform="rotate(0,77.5,883.5)"/><rect x="62" y="899" width="31" height="31" transform="rotate(0,77.5,914.5)"/><path d="M 62 930v 31h 31v -15.5a 15.5 15.5, 0, 0, 0, -15.5 -15.5" transform="rotate(180,77.5,945.5)"/><rect x="93" y="744" width="31" height="31" transform="rotate(0,108.5,759.5)"/><rect x="93" y="930" width="31" height="31" transform="rotate(0,108.5,945.5)"/><rect x="124" y="744" width="31" height="31" transform="rotate(0,139.5,759.5)"/><rect x="124" y="930" width="31" height="31" transform="rotate(0,139.5,945.5)"/><rect x="155" y="744" width="31" height="31" transform="rotate(0,170.5,759.5)"/><rect x="155" y="930" width="31" height="31" transform="rotate(0,170.5,945.5)"/><rect x="186" y="744" width="31" height="31" transform="rotate(0,201.5,759.5)"/><rect x="186" y="930" width="31" height="31" transform="rotate(0,201.5,945.5)"/><rect x="217" y="744" width="31" height="31" transform="rotate(0,232.5,759.5)"/><rect x="217" y="930" width="31" height="31" transform="rotate(0,232.5,945.5)"/><path d="M 248 744v 31h 31v -15.5a 15.5 15.5, 0, 0, 0, -15.5 -15.5" transform="rotate(0,263.5,759.5)"/><rect x="248" y="775" width="31" height="31" transform="rotate(0,263.5,790.5)"/><rect x="248" y="806" width="31" height="31" transform="rotate(0,263.5,821.5)"/><rect x="248" y="837" width="31" height="31" transform="rotate(0,263.5,852.5)"/><rect x="248" y="868" width="31" height="31" transform="rotate(0,263.5,883.5)"/><rect x="248" y="899" width="31" height="31" transform="rotate(0,263.5,914.5)"/><path d="M 248 930v 31h 31v -15.5a 15.5 15.5, 0, 0, 0, -15.5 -15.5" transform="rotate(90,263.5,945.5)"/></clipPath><clipPath id="clip-path-corners-dot-color-0-1"><path d="M 124 806v 31h 31v -15.5a 15.5 15.5, 0, 0, 0, -15.5 -15.5" transform="rotate(-90,139.5,821.5)"/><rect x="124" y="837" width="31" height="31" transform="rotate(0,139.5,852.5)"/><path d="M 124 868v 31h 31v -15.5a 15.5 15.5, 0, 0, 0, -15.5 -15.5" transform="rotate(180,139.5,883.5)"/><rect x="155" y="806" width="31" height="31" transform="rotate(0,170.5,821.5)"/><rect x="155" y="837" width="31" height="31" transform="rotate(0,170.5,852.5)"/><rect x="155" y="868" width="31" height="31" transform="rotate(0,170.5,883.5)"/><path d="M 186 806v 31h 31v -15.5a 15.5 15.5, 0, 0, 0, -15.5 -15.5" transform="rotate(0,201.5,821.5)"/><rect x="186" y="837" width="31" height="31" transform="rotate(0,201.5,852.5)"/><path d="M 186 868v 31h 31v -15.5a 15.5 15.5, 0, 0, 0, -15.5 -15.5" transform="rotate(90,201.5,883.5)"/></clipPath></defs><rect x="0" y="0" height="1024" width="1024" clip-path="url('#clip-path-background-color')" fill="#ffffff"/><rect x="62" y="62" height="899" width="899" clip-path="url('#clip-path-dot-color')" fill="#000000"/><rect x="62" y="62" height="217" width="217" clip-path="url('#clip-path-corners-square-color-0-0')" fill="#000000"/><rect x="124" y="124" height="93" width="93" clip-path="url('#clip-path-corners-dot-color-0-0')" fill="#000000"/><rect x="744" y="62" height="217" width="217" clip-path="url('#clip-path-corners-square-color-1-0')" fill="#000000"/><rect x="806" y="124" height="93" width="93" clip-path="url('#clip-path-corners-dot-color-1-0')" fill="#000000"/><rect x="62" y="744" height="217" width="217" clip-path="url('#clip-path-corners-square-color-0-1')" fill="#000000"/><rect x="124" y="806" height="93" width="93" clip-path="url('#clip-path-corners-dot-color-0-1')" fill="#000000"/></svg>