<?xml version="1.0" standalone="no"?>
<svg xmlns="http://www.w3.org/2000/svg" width="1024" height="1024" viewBox="0 0 1024 1024"><defs><clipPath id="clip-path-dot-color"><rect x="62" y="350" width="36" height="36" transform="rotate(0,80,368)"/><rect x="62" y="386" width="36" height="36" transform="rotate(0,80,404)"/><rect x="62" y="422" width="36" height="36" transform="rotate(0,80,440)"/><rect x="62" y="458" width="36" height="36" transform="rotate(0,80,476)"/><rect x="62" y="602" width="36" height="36" transform="rotate(0,80,620)"/><rect x="98" y="458" width="36" height="36" transform="rotate(0,116,476)"/><rect x="98" y="494" width="36" height="36" transform="rotate(0,116,512)"/><rect x="134" y="386" width="36" height="36" transform="rotate(0,152,404)"/><rect x="134" y="458" width="36" height="36" transform="rotate(0,152,476)"/><rect x="134" y="530" width="36" height="36" transform="rotate(0,152,548)"/><rect x="134" y="566" width="36" height="36" transform="rotate(0,152,584)"/><rect x="134" y="602" width="36" height="36" transform="rotate(0,152,620)"/><rect x="134" y="638" width="36" height="36" transform="rotate(0,152,656)"/><rect x="170" y="422" width="36" height="36" transform="rotate(0,188,440)"/><rect x="170" y="458" width="36" height="36" transform="rotate(0,188,476)"/><rect x="170" y="530" width="36" height="36" transform="rotate(0,188,548)"/><rect x="170" y="566" width="36" height="36" transform="rotate(0,188,584)"/><rect x="206" y="422" width="36" height="36" transform="rotate(0,224,440)"/><rect x="206" y="458" width="36" height="36" transform="rotate(0,224,476)"/><rect x="206" y="494" width="36" height="36" transform="rotate(0,224,512)"/><rect x="206" y="602" width="36" height="36" transform="rotate(0,224,620)"/><rect x="206" y="638" width="36" height="36" transform="rotate(0,224,656)"/><rect x="242" y="386" width="36" height="36" transform="rotate(0,260,404)"/><rect x="242" y="458" width="36" height="36" transform="rotate(0,260,476)"/><rect x="242" y="530" width="36" height="36" transform="rotate(0,260,548)"/><rect x="242" y="566" width="36" height="36" transform="rotate(0,260,584)"/><rect x="278" y="350" width="36" height="36" transform="rotate(0,296,368)"/><rect x="278" y="422" width="36" height="36" transform="rotate(0,296,440)"/><rect x="278" y="494" width="36" height="36" transform="rotate(0,296,512)"/><rect x="278" y="566" width="36" height="36" transform="rotate(0,296,584)"/><rect x="278" y="638" width="36" height="36" transform="rotate(0,296,656)"/><rect x="314" y="350" width="36" height="36" transform="rotate(0,332,368)"/><rect x="314" y="386" width="36" height="36" transform="rotate(0,332,404)"/><rect x="314" y="494" width="36" height="36" transform="rotate(0,332,512)"/><rect x="314" y="530" width="36" height="36" transform="rotate(0,332,548)"/><rect x="314" y="602" width="36" height="36" transform="rotate(0,332,620)"/><rect x="314" y="638" width="36" height="36" transform="rotate(0,332,656)"/><rect x="350" y="62" width="36" height="36" transform="rotate(0,368,80)"/><rect x="350" y="98" width="36" height="36" transform="rotate(0,368,116)"/><rect x="350" y="170" width="36" height="36" transform="rotate(0,368,188)"/><rect x="350" y="206" width="36" height="36" transform="rotate(0,368,224)"/><rect x="350" y="278" width="36" height="36" transform="rotate(0,368,296)"/><rect x="350" y="386" width="36" height="36" transform="rotate(0,368,404)"/><rect x="350" y="494" width="36" height="36" transform="rotate(0,368,512)"/><rect x="350" y="566" width="36" height="36" transform="rotate(0,368,584)"/><rect x="350" y="638" width="36" height="36" transform="rotate(0,368,656)"/><rect x="350" y="710" width="36" height="36" transform="rotate(0,368,728)"/><rect x="350" y="926" width="36" height="36" transform="rotate(0,368,944)"/><rect x="386" y="134" width="36" height="36" transform="rotate(0,404,152)"/><rect x="386" y="206" width="36" height="36" transform="rotate(0,404,224)"/><rect x="386" y="242" width="36" height="36" transform="rotate(0,404,260)"/><rect x="386" y="314" width="36" height="36" transform="rotate(0,404,332)"/><rect x="386" y="350" width="36" height="36" transform="rotate(0,404,368)"/><rect x="386" y="422" width="36" height="36" transform="rotate(0,404,440)"/><rect x="386" y="602" width="36" height="36" transform="rotate(0,404,620)"/><rect x="386" y="638" width="36" height="36" transform="rotate(0,404,656)"/><rect x="386" y="674" width="36" height="36" transform="rotate(0,404,692)"/><rect x="386" y="746" width="36" height="36" transform="rotate(0,404,764)"/><rect x="386" y="782" width="36" height="36" transform="rotate(0,404,800)"/><rect x="386" y="818" width="36" height="36" transform="rotate(0,404,836)"/><rect x="386" y="854" width="36" height="36" transform="rotate(0,404,872)"/><rect x="386" y="890" width="36" height="36" transform="rotate(0,404,908)"/><rect x="422" y="62" width="36" height="36" transform="rotate(0,440,80)"/><rect x="422" y="98" width="36" height="36" transform="rotate(0,440,116)"/><rect x="422" y="170" width="36" height="36" transform="rotate(0,440,188)"/><rect x="422" y="206" width="36" height="36" transform="rotate(0,440,224)"/><rect x="422" y="278" width="36" height="36" transform="rotate(0,440,296)"/><rect x="422" y="350" width="36" height="36" transform="rotate(0,440,368)"/><rect x="422" y="386" width="36" height="36" transform="rotate(0,440,404)"/><rect x="422" y="494" width="36" height="36" transform="rotate(0,440,512)"/><rect x="422" y="530" width="36" height="36" transform="rotate(0,440,548)"/><rect x="422" y="602" width="36" height="36" transform="rotate(0,440,620)"/><rect x="422" y="638" width="36" height="36" transform="rotate(0,440,656)"/><rect x="422" y="674" width="36" height="36" transform="rotate(0,440,692)"/><rect x="422" y="710" width="36" height="36" transform="rotate(0,440,728)"/><rect x="422" y="746" width="36" height="36" transform="rotate(0,440,764)"/><rect x="422" y="782" width="36" height="36" transform="rotate(0,440,800)"/><rect x="422" y="818" width="36" height="36" transform="rotate(0,440,836)"/><rect x="422" y="926" width="36" height="36" transform="rotate(0,440,944)"/><rect x="458" y="62" width="36" height="36" transform="rotate(0,476,80)"/><rect x="458" y="134" width="36" height="36" transform="rotate(0,476,152)"/><rect x="458" y="206" width="36" height="36" transform="rotate(0,476,224)"/><rect x="458" y="350" width="36" height="36" transform="rotate(0,476,368)"/><rect x="458" y="566" width="36" height="36" transform="rotate(0,476,584)"/><rect x="458" y="602" width="36" height="36" transform="rotate(0,476,620)"/><rect x="458" y="674" width="36" height="36" transform="rotate(0,476,692)"/><rect x="458" y="818" width="36" height="36" transform="rotate(0,476,836)"/><rect x="458" y="854" width="36" height="36" transform="rotate(0,476,872)"/><rect x="458" y="890" width="36" height="36" transform="rotate(0,476,908)"/><rect x="458" y="926" width="36" height="36" transform="rotate(0,476,944)"/><rect x="494" y="62" width="36" height="36" transform="rotate(0,512,80)"/><rect x="494" y="134" width="36" height="36" transform="rotate(0,512,152)"/><rect x="494" y="170" width="36" height="36" transform="rotate(0,512,188)"/><rect x="494" y="242" width="36" height="36" transform="rotate(0,512,260)"/><rect x="494" y="278" width="36" height="36" transform="rotate(0,512,296)"/><rect x="494" y="350" width="36" height="36" transform="rotate(0,512,368)"/><rect x="494" y="386" width="36" height="36" transform="rotate(0,512,404)"/><rect x="494" y="422" width="36" height="36" transform="rotate(0,512,440)"/><rect x="494" y="494" width="36" height="36" transform="rotate(0,512,512)"/><rect x="494" y="638" width="36" height="36" transform="rotate(0,512,656)"/><rect x="494" y="710" width="36" height="36" transform="rotate(0,512,728)"/><rect x="494" y="926" width="36" height="36" transform="rotate(0,512,944)"/><rect x="530" y="62" width="36" height="36" transform="rotate(0,548,80)"/><rect x="530" y="170" width="36" height="36" transform="rotate(0,548,188)"/><rect x="530" y="206" width="36" height="36" transform="rotate(0,548,224)"/><rect x="530" y="422" width="36" height="36" transform="rotate(0,548,440)"/><rect x="530" y="494" width="36" height="36" transform="rotate(0,548,512)"/><rect x="530" y="530" width="36" height="36" transform="rotate(0,548,548)"/><rect x="530" y="602" width="36" height="36" transform="rotate(0,548,620)"/><rect x="530" y="638" width="36" height="36" transform="rotate(0,548,656)"/><rect x="530" y="782" width="36" height="36" transform="rotate(0,548,800)"/><rect x="530" y="890" width="36" height="36" transform="rotate(0,548,908)"/><rect x="566" y="62" width="36" height="36" transform="rotate(0,584,80)"/><rect x="566" y="98" width="36" height="36" transform="rotate(0,584,116)"/><rect x="566" y="134" width="36" height="36" transform="rotate(0,584,152)"/><rect x="566" y="170" width="36" height="36" transform="rotate(0,584,188)"/><rect x="566" y="206" width="36" height="36" transform="rotate(0,584,224)"/><rect x="566" y="278" width="36" height="36" transform="rotate(0,584,296)"/><rect x="566" y="422" width="36" height="36" transform="rotate(0,584,440)"/><rect x="566" y="602" width="36" height="36" transform="rotate(0,584,620)"/><rect x="566" y="674" width="36" height="36" transform="rotate(0,584,692)"/><rect x="566" y="710" width="36" height="36" transform="rotate(0,584,728)"/><rect x="566" y="782" width="36" height="36" transform="rotate(0,584,800)"/><rect x="566" y="818" width="36" height="36" transform="rotate(0,584,836)"/><rect x="566" y="854" width="36" height="36" transform="rotate(0,584,872)"/><rect x="566" y="890" width="36" height="36" transform="rotate(0,584,908)"/><rect x="566" y="926" width="36" height="36" transform="rotate(0,584,944)"/><rect x="602" y="62" width="36" height="36" transform="rotate(0,620,80)"/><rect x="602" y="314" width="36" height="36" transform="rotate(0,620,332)"/><rect x="602" y="386" width="36" height="36" transform="rotate(0,620,404)"/><rect x="602" y="422" width="36" height="36" transform="rotate(0,620,440)"/><rect x="602" y="494" width="36" height="36" transform="rotate(0,620,512)"/><rect x="602" y="566" width="36" height="36" transform="rotate(0,620,584)"/><rect x="602" y="638" width="36" height="36" transform="rotate(0,620,656)"/><rect x="602" y="746" width="36" height="36" transform="rotate(0,620,764)"/><rect x="602" y="818" width="36" height="36" transform="rotate(0,620,836)"/><rect x="602" y="854" width="36" height="36" transform="rotate(0,620,872)"/><rect x="602" y="926" width="36" height="36" transform="rotate(0,620,944)"/><rect x="638" y="62" width="36" height="36" transform="rotate(0,656,80)"/><rect x="638" y="206" width="36" height="36" transform="rotate(0,656,224)"/><rect x="638" y="242" width="36" height="36" transform="rotate(0,656,260)"/><rect x="638" y="278" width="36" height="36" transform="rotate(0,656,296)"/><rect x="638" y="314" width="36" height="36" transform="rotate(0,656,332)"/><rect x="638" y="350" width="36" height="36" transform="rotate(0,656,368)"/><rect x="638" y="530" width="36" height="36" transform="rotate(0,656,548)"/><rect x="638" y="566" width="36" height="36" transform="rotate(0,656,584)"/><rect x="638" y="638" width="36" height="36" transform="rotate(0,656,656)"/><rect x="638" y="674" width="36" height="36" transform="rotate(0,656,692)"/><rect x="638" y="710" width="36" height="36" transform="rotate(0,656,728)"/><rect x="638" y="746" width="36" height="36" transform="rotate(0,656,764)"/><rect x="638" y="782" width="36" height="36" transform="rotate(0,656,800)"/><rect x="638" y="854" width="36" height="36" transform="rotate(0,656,872)"/><rect x="638" y="890" width="36" height="36" transform="rotate(0,656,908)"/><rect x="674" y="350" width="36" height="36" transform="rotate(0,692,368)"/><rect x="674" y="386" width="36" height="36" transform="rotate(0,692,404)"/><rect x="674" y="494" width="36" height="36" transform="rotate(0,692,512)"/><rect x="674" y="530" width="36" height="36" transform="rotate(0,692,548)"/><rect x="674" y="566" width="36" height="36" transform="rotate(0,692,584)"/><rect x="674" y="638" width="36" height="36" transform="rotate(0,692,656)"/><rect x="674" y="782" width="36" height="36" transform="rotate(0,692,800)"/><rect x="674" y="854" width="36" height="36" transform="rotate(0,692,872)"/><rect x="674" y="890" width="36" height="36" transform="rotate(0,692,908)"/><rect x="710" y="386" width="36" height="36" transform="rotate(0,728,404)"/><rect x="710" y="422" width="36" height="36" transform="rotate(0,728,440)"/><rect x="710" y="458" width="36" height="36" transform="rotate(0,728,476)"/><rect x="710" y="494" width="36" height="36" transform="rotate(0,728,512)"/><rect x="710" y="530" width="36" height="36" transform="rotate(0,728,548)"/><rect x="710" y="566" width="36" height="36" transform="rotate(0,728,584)"/><rect x="710" y="638" width="36" height="36" transform="rotate(0,728,656)"/><rect x="710" y="710" width="36" height="36" transform="rotate(0,728,728)"/><rect x="710" y="782" width="36" height="36" transform="rotate(0,728,800)"/><rect x="710" y="926" width="36" height="36" transform="rotate(0,728,944)"/><rect x="746" y="386" width="36" height="36" transform="rotate(0,764,404)"/><rect x="746" y="422" width="36" height="36" transform="rotate(0,764,440)"/><rect x="746" y="530" width="36" height="36" transform="rotate(0,764,548)"/><rect x="746" y="566" width="36" height="36" transform="rotate(0,764,584)"/><rect x="746" y="602" width="36" height="36" transform="rotate(0,764,620)"/><rect x="746" y="638" width="36" height="36" transform="rotate(0,764,656)"/><rect x="746" y="782" width="36" height="36" transform="rotate(0,764,800)"/><rect x="782" y="350" width="36" height="36" transform="rotate(0,800,368)"/><rect x="782" y="386" width="36" height="36" transform="rotate(0,800,404)"/><rect x="782" y="422" width="36" height="36" transform="rotate(0,800,440)"/><rect x="782" y="602" width="36" height="36" transform="rotate(0,800,620)"/><rect x="782" y="638" width="36" height="36" transform="rotate(0,800,656)"/><rect x="782" y="674" width="36" height="36" transform="rotate(0,800,692)"/><rect x="782" y="710" width="36" height="36" transform="rotate(0,800,728)"/><rect x="782" y="746" width="36" height="36" transform="rotate(0,800,764)"/><rect x="782" y="782" width="36" height="36" transform="rotate(0,800,800)"/><rect x="818" y="350" width="36" height="36" transform="rotate(0,836,368)"/><rect x="818" y="422" width="36" height="36" transform="rotate(0,836,440)"/><rect x="818" y="674" width="36" height="36" transform="rotate(0,836,692)"/><rect x="818" y="710" width="36" height="36" transform="rotate(0,836,728)"/><rect x="818" y="890" width="36" height="36" transform="rotate(0,836,908)"/><rect x="818" y="926" width="36" height="36" transform="rotate(0,836,944)"/><rect x="854" y="386" width="36" height="36" transform="rotate(0,872,404)"/><rect x="854" y="422" width="36" height="36" transform="rotate(0,872,440)"/><rect x="854" y="458" width="36" height="36" transform="rotate(0,872,476)"/><rect x="854" y="494" width="36" height="36" transform="rotate(0,872,512)"/><rect x="854" y="530" width="36" height="36" transform="rotate(0,872,548)"/><rect x="854" y="566" width="36" height="36" transform="rotate(0,872,584)"/><rect x="854" y="638" width="36" height="36" transform="rotate(0,872,656)"/><rect x="854" y="782" width="36" height="36" transform="rotate(0,872,800)"/><rect x="854" y="818" width="36" height="36" transform="rotate(0,872,836)"/><rect x="854" y="854" width="36" height="36" transform="rotate(0,872,872)"/><rect x="854" y="890" width="36" height="36" transform="rotate(0,872,908)"/><rect x="854" y="926" width="36" height="36" transform="rotate(0,872,944)"/><rect x="890" y="350" width="36" height="36" transform="rotate(0,908,368)"/><rect x="890" y="386" width="36" height="36" transform="rotate(0,908,404)"/><rect x="890" y="422" width="36" height="36" transform="rotate(0,908,440)"/><rect x="890" y="566" width="36" height="36" transform="rotate(0,908,584)"/><rect x="890" y="674" width="36" height="36" transform="rotate(0,908,692)"/><rect x="890" y="746" width="36" height="36" transform="rotate(0,908,764)"/><rect x="890" y="782" width="36" height="36" transform="rotate(0,908,800)"/><rect x="890" y="854" width="36" height="36" transform="rotate(0,908,872)"/><rect x="890" y="890" width="36" height="36" transform="rotate(0,908,908)"/><rect x="890" y="926" width="36" height="36" transform="rotate(0,908,944)"/><rect x="926" y="350" width="36" height="36" transform="rotate(0,944,368)"/><rect x="926" y="458" width="36" height="36" transform="rotate(0,944,476)"/><rect x="926" y="602" width="36" height="36" transform="rotate(0,944,620)"/><rect x="926" y="638" width="36" height="36" transform="rotate(0,944,656)"/><rect x="926" y="710" width="36" height="36" transform="rotate(0,944,728)"/><rect x="926" y="818" width="36" height="36" transform="rotate(0,944,836)"/><rect x="926" y="926" width="36" height="36" transform="rotate(0,944,944)"/></clipPath><clipPath id="clip-path-corners-square-color-0-0"><rect x="62" y="62" width="36" height="36" transform="rotate(0,80,80)"/><rect x="62" y="98" width="36" height="36" transform="rotate(0,80,116)"/><rect x="62" y="134" width="36" height="36" transform="rotate(0,80,152)"/><rect x="62" y="170" width="36" height="36" transform="rotate(0,80,188)"/><rect x="62" y="206" width="36" height="36" transform="rotate(0,80,224)"/><rect x="62" y="242" width="36" height="36" transform="rotate(0,80,260)"/><rect x="62" y="278" width="36" height="36" transform="rotate(0,80,296)"/><rect x="98" y="62" width="36" height="36" transform="rotate(0,116,80)"/><rect x="98" y="278" width="36" height="36" transform="rotate(0,116,296)"/><rect x="134" y="62" width="36" height="36" transform="rotate(0,152,80)"/><rect x="134" y="278" width="36" height="36" transform="rotate(0,152,296)"/><rect x="170" y="62" width="36" height="36" transform="rotate(0,188,80)"/><rect x="170" y="278" width="36" height="36" transform="rotate(0,188,296)"/><rect x="206" y="62" width="36" height="36" transform="rotate(0,224,80)"/><rect x="206" y="278" width="36" height="36" transform="rotate(0,224,296)"/><rect x="242" y="62" width="36" height="36" transform="rotate(0,260,80)"/><rect x="242" y="278" width="36" height="36" transform="rotate(0,260,296)"/><rect x="278" y="62" width="36" height="36" transform="rotate(0,296,80)"/><rect x="278" y="98" width="36" height="36" transform="rotate(0,296,116)"/><rect x="278" y="134" width="36" height="36" transform="rotate(0,296,152)"/><rect x="278" y="170" width="36" height="36" transform="rotate(0,296,188)"/><rect x="278" y="206" width="36" height="36" transform="rotate(0,296,224)"/><rect x="278" y="242" width="36" height="36" transform="rotate(0,296,260)"/><rect x="278" y="278" width="36" height="36" transform="rotate(0,296,296)"/></clipPath><clipPath id="clip-path-corners-dot-color-0-0"><circle cx="188" cy="188" r="54" transform="rotate(0,188,188)"/></clipPath><clipPath id="clip-path-corners-square-color-1-0"><rect x="710" y="62" width="36" height="36" transform="rotate(0,728,80)"/><rect x="710" y="98" width="36" height="36" transform="rotate(0,728,116)"/><rect x="710" y="134" width="36" height="36" transform="rotate(0,728,152)"/><rect x="710" y="170" width="36" height="36" transform="rotate(0,728,188)"/><rect x="710" y="206" width="36" height="36" transform="rotate(0,728,224)"/><rect x="710" y="242" width="36" height="36" transform="rotate(0,728,260)"/><rect x="710" y="278" width="36" height="36" transform="rotate(0,728,296)"/><rect x="746" y="62" width="36" height="36" transform="rotate(0,764,80)"/><rect x="746" y="278" width="36" height="36" transform="rotate(0,764,296)"/><rect x="782" y="62" width="36" height="36" transform="rotate(0,800,80)"/><rect x="782" y="278" width="36" height="36" transform="rotate(0,800,296)"/><rect x="818" y="62" width="36" height="36" transform="rotate(0,836,80)"/><rect x="818" y="278" width="36" height="36" transform="rotate(0,836,296)"/><rect x="854" y="62" width="36" height="36" transform="rotate(0,872,80)"/><rect x="854" y="278" width="36" height="36" transform="rotate(0,872,296)"/><rect x="890" y="62" width="36" height="36" transform="rotate(0,908,80)"/><rect x="890" y="278" width="36" height="36" transform="rotate(0,908,296)"/><rect x="926" y="62" width="36" height="36" transform="rotate(0,944,80)"/><rect x="926" y="98" width="36" height="36" transform="rotate(0,944,116)"/><rect x="926" y="134" width="36" height="36" transform="rotate(0,944,152)"/><rect x="926" y="170" width="36" height="36" transform="rotate(0,944,188)"/><rect x="926" y="206" width="36" height="36" transform="rotate(0,944,224)"/><rect x="926" y="242" width="36" height="36" transform="rotate(0,944,260)"/><rect x="926" y="278" width="36" height="36" transform="rotate(0,944,296)"/></clipPath><clipPath id="clip-path-corners-dot-color-1-0"><circle cx="836" cy="188" r="54" transform="rotate(90,836,188)"/></clipPath><clipPath id="clip-path-corners-square-color-0-1"><rect x="62" y="710" width="36" height="36" transform="rotate(0,80,728)"/><rect x="62" y="746" width="36" height="36" transform="rotate(0,80,764)"/><rect x="62" y="782" width="36" height="36" transform="rotate(0,80,800)"/><rect x="62" y="818" width="36" height="36" transform="rotate(0,80,836)"/><rect x="62" y="854" width="36" height="36" transform="rotate(0,80,872)"/><rect x="62" y="890" width="36" height="36" transform="rotate(0,80,908)"/><rect x="62" y="926" width="36" height="36" transform="rotate(0,80,944)"/><rect x="98" y="710" width="36" height="36" transform="rotate(0,116,728)"/><rect x="98" y="926" width="36" height="36" transform="rotate(0,116,944)"/><rect x="134" y="710" width="36" height="36" transform="rotate(0,152,728)"/><rect x="134" y="926" width="36" height="36" transform="rotate(0,152,944)"/><rect x="170" y="710" width="36" height="36" transform="rotate(0,188,728)"/><rect x="170" y="926" width="36" height="36" transform="rotate(0,188,944)"/><rect x="206" y="710" width="36" height="36" transform="rotate(0,224,728)"/><rect x="206" y="926" width="36" height="36" transform="rotate(0,224,944)"/><rect x="242" y="710" width="36" height="36" transform="rotate(0,260,728)"/><rect x="242" y="926" width="36" height="36" transform="rotate(0,260,944)"/><rect x="278" y="710" width="36" height="36" transform="rotate(0,296,728)"/><rect x="278" y="746" width="36" height="36" transform="rotate(0,296,764)"/><rect x="278" y="782" width="36" height="36" transform="rotate(0,296,800)"/><rect x="278" y="818" width="36" height="36" transform="rotate(0,296,836)"/><rect x="278" y="854" width="36" height="36" transform="rotate(0,296,872)"/><rect x="278" y="890" width="36" height="36" transform="rotate(0,296,908)"/><rect x="278" y="926" width="36" height="36" transform="rotate(0,296,944)"/></clipPath><clipPath id="clip-path-corners-dot-color-0-1"><circle cx="188" cy="836" r="54" transform="rotate(-90,188,836)"/></clipPath></defs><rect x="0" y="0" height="1024" width="1024" clip-path="url('#clip-path-background-color')" fill="#ffffff"/><rect x="62" y="62" height="900" width="900" clip-path="url('#clip-path-dot-color')" fill="#000000"/><rect x="62" y="62" height="252" width="252" clip-path="url('#clip-path-corners-square-color-0-0')" fill="#000000"/><rect x="134" y="134" height="108" width="108" clip-path="url('#clip-path-corners-dot-color-0-0')" fill="#000000"/><rect x="710" y="62" height="252" width="252" clip-path="url('#clip-path-corners-square-color-1-0')" fill="#000000"/><rect x="782" y="134" height="108" width="108" clip-path="url('#clip-path-corners-dot-color-1-0')" fill="#000000"/><rect x="62" y="710" height="252" width="252" clip-path="url('#clip-path-corners-square-color-0-1')" fill="#000000"/><rect x="134" y="782" height="108" width="108" clip-path="url('#clip-path-corners-dot-color-0-1')" fill="#000000"/></svg>